<?xml version="1.0" encoding="UTF-8"?>
<svg version="1.1" xmlns="http://www.w3.org/2000/svg" width="100" height="15">
<path d="M0 0 C3.72895719 3.04404668 5.83849211 6.27745967 8.0625 10.5 C8.57039063 9.88511719 9.07828125 9.27023438 9.6015625 8.63671875 C17.0190838 -0.07261806 17.0190838 -0.07261806 22.0625 -1.5 C34.58361134 -2.44025867 34.58361134 -2.44025867 39.0625 0.5 C40 2.25 40 2.25 40.0625 4.5 C38.625 7.75 38.625 7.75 37.0625 10.5 C35.94101562 10.46519531 35.94101562 10.46519531 34.796875 10.4296875 C33.81203125 10.41164062 32.8271875 10.39359375 31.8125 10.375 C30.83796875 10.35179687 29.8634375 10.32859375 28.859375 10.3046875 C25.99622787 10.50462794 24.41094762 10.87332298 22.0625 12.5 C20.58190705 16.94177885 20.451719 21.39002927 21.75 25.875 C23.69303034 28.28065661 25.03093562 28.79048493 28.0625 29.5 C31.11962051 29.36150629 34.02687621 28.95307818 37.0625 28.5 C38.3825 31.14 39.7025 33.78 41.0625 36.5 C41.05726318 35.41468994 41.05202637 34.32937988 41.04663086 33.21118164 C41.02858164 29.19882018 41.01706829 25.18646233 41.00756836 21.17407227 C41.00252796 19.43480832 40.9956957 17.69554864 40.98706055 15.95629883 C40.97498208 13.46174063 40.96926892 10.96723827 40.96484375 8.47265625 C40.95968246 7.69036148 40.95452118 6.90806671 40.94920349 6.10206604 C40.94900774 4.23432886 41.00050306 2.36670796 41.0625 0.5 C42.0625 -0.5 42.0625 -0.5 44.12890625 -0.59765625 C45.36447266 -0.58025391 45.36447266 -0.58025391 46.625 -0.5625 C47.45128906 -0.55347656 48.27757812 -0.54445312 49.12890625 -0.53515625 C49.76699219 -0.52355469 50.40507812 -0.51195312 51.0625 -0.5 C51.5575 0.985 51.5575 0.985 52.0625 2.5 C51.7325 3.16 51.4025 3.82 51.0625 4.5 C51.68125 4.005 52.3 3.51 52.9375 3 C55.0625 1.5 55.0625 1.5 57.0625 1.5 C57.0625 0.84 57.0625 0.18 57.0625 -0.5 C60.91154538 -1.88565634 64.0809896 -1.08743596 68.0625 -0.5 C70.45989488 -0.46514289 72.84555875 -0.49750668 75.2421875 -0.5625 C77.0625 -0.5 77.0625 -0.5 78.0625 0.5 C78.20858293 2.48642661 78.28987555 4.47768786 78.34375 6.46875 C78.39982422 8.28439453 78.39982422 8.28439453 78.45703125 10.13671875 C78.52734375 12.71223958 78.59765625 15.28776042 78.66796875 17.86328125 C78.72404297 19.67892578 78.72404297 19.67892578 78.78125 21.53125 C78.81154297 22.65080078 78.84183594 23.77035156 78.87304688 24.92382812 C78.77536235 27.43064283 78.77536235 27.43064283 80.0625 28.5 C84.30043303 29.024369 87.88258338 29.28661108 91.5 26.875 C95.16189258 21.30892328 95.41290119 15.6384077 95.625 9.1875 C95.9402439 0.6222561 95.9402439 0.6222561 97.0625 -0.5 C98.55988124 -0.5979057 100.06192892 -0.62974864 101.5625 -0.625 C102.3771875 -0.62757813 103.191875 -0.63015625 104.03125 -0.6328125 C106.0625 -0.5 106.0625 -0.5 107.0625 0.5 C107.22267166 3.30976518 107.32200534 6.09773596 107.37890625 8.91015625 C107.39968735 9.75219101 107.42046844 10.59422577 107.44187927 11.46177673 C107.50746812 14.16193179 107.56630276 16.86218717 107.625 19.5625 C107.66817637 21.38868241 107.71179036 23.21485454 107.75585938 25.04101562 C107.86315894 29.52723992 107.96439966 34.0135655 108.0625 38.5 C104.29774149 40.60598802 102.28043774 40.66666363 98.0625 39.5 C96.1875 37.9375 96.1875 37.9375 95.0625 36.5 C94.464375 36.974375 93.86625 37.44875 93.25 37.9375 C87.9462791 41.72587207 81.30162142 41.05254212 75.0625 40.5 C70.45750169 38.35629389 68.13154041 36.10050246 66.0625 31.5 C65.6996787 27.88777197 65.78003736 24.31312503 65.875 20.6875 C65.88853516 19.70845703 65.90207031 18.72941406 65.91601562 17.72070312 C65.95124688 15.31323375 66.00050735 12.90690436 66.0625 10.5 C64.79277344 10.78101563 63.52304687 11.06203125 62.21484375 11.3515625 C61.14351196 11.58866943 61.14351196 11.58866943 60.05053711 11.83056641 C56.93300187 12.88033696 55.70542581 14.73988464 54.0625 17.5 C53.21116121 20.28960018 52.89142932 22.92141368 52.74609375 25.828125 C52.70419922 26.62734375 52.66230469 27.4265625 52.61914062 28.25 C52.57982422 29.075 52.54050781 29.9 52.5 30.75 C52.43522461 32.01070312 52.43522461 32.01070312 52.36914062 33.296875 C52.26341457 35.36440671 52.16248705 37.43218281 52.0625 39.5 C48.03590604 40.42604802 45.12529475 40.35035239 41.0625 39.5 C41.0625 38.84 41.0625 38.18 41.0625 37.5 C39.80566406 38.22509766 39.80566406 38.22509766 38.5234375 38.96484375 C32.53415974 41.62148727 26.48271105 41.33951313 20.0625 40.5 C14.94389211 38.34238053 11.25117024 34.43786677 8.73828125 29.51171875 C7.42977882 25.61646585 7.22678485 21.58247852 7.0625 17.5 C5.98871094 17.90992188 4.91492188 18.31984375 3.80859375 18.7421875 C2.37245224 19.28660716 0.93625113 19.83086961 -0.5 20.375 C-1.20447266 20.64441406 -1.90894531 20.91382813 -2.63476562 21.19140625 C-7.02549499 22.85057587 -11.40643615 24.27345709 -15.9375 25.5 C-14.63851606 27.72876774 -14.63851606 27.72876774 -11.9375 29.5 C-6.03724152 30.28064958 -1.4169688 29.69930652 4.0625 27.5 C6.65737555 28.79743778 7.08519781 29.79362471 8.0625 32.5 C7.6875 35.25 7.6875 35.25 7.0625 37.5 C-1.48626936 40.7133672 -9.1076602 42.93382659 -17.9375 39.5 C-20.34424247 38.25643758 -22.62378493 36.91656025 -24.9375 35.5 C-24.9375 34.84 -24.9375 34.18 -24.9375 33.5 C-25.5975 33.5 -26.2575 33.5 -26.9375 33.5 C-31.47955882 27.83079636 -30.78545219 20.39044594 -30.23486328 13.49658203 C-29.40997572 7.95805127 -26.39634221 4.48893014 -22.1796875 1.078125 C-15.83357643 -2.79857883 -6.70500648 -3.27930448 0 0 Z M-15.9375 10.6875 C-16.5975 11.615625 -17.2575 12.54375 -17.9375 13.5 C-17.6075 14.82 -17.2775 16.14 -16.9375 17.5 C-12.6475 16.18 -8.3575 14.86 -3.9375 13.5 C-4.5975 12.18 -5.2575 10.86 -5.9375 9.5 C-10.42228863 8.06148289 -12.07363799 7.87010061 -15.9375 10.6875 Z " fill="#E37E23" transform="translate(229.9375,204.5)"/>
<path d="M0 0 C3.29135646 1.80106416 5.93000917 3.92316983 7.6953125 7.24609375 C7.6953125 8.56609375 7.6953125 9.88609375 7.6953125 11.24609375 C8.3553125 11.24609375 9.0153125 11.24609375 9.6953125 11.24609375 C9.7778125 10.17359375 9.8603125 9.10109375 9.9453125 7.99609375 C10.7581284 3.93201423 11.46626135 2.71536816 14.6953125 0.24609375 C17.49280091 -0.68640239 19.23852131 -0.88866777 22.1328125 -0.87890625 C22.89464844 -0.88148438 23.65648437 -0.8840625 24.44140625 -0.88671875 C26.6953125 -0.75390625 26.6953125 -0.75390625 28.58984375 -0.25 C31.40674585 0.41372276 34.05567657 0.34000284 36.9453125 0.30859375 C38.02296875 0.29957031 39.100625 0.29054687 40.2109375 0.28125 C41.44070313 0.26384766 41.44070313 0.26384766 42.6953125 0.24609375 C43.00984375 1.01953125 43.324375 1.79296875 43.6484375 2.58984375 C46.11992055 8.6047784 48.69860976 14.47466626 51.6953125 20.24609375 C52.02144531 19.37726563 52.34757812 18.5084375 52.68359375 17.61328125 C53.12058594 16.46085937 53.55757813 15.3084375 54.0078125 14.12109375 C54.43707031 12.98414063 54.86632812 11.8471875 55.30859375 10.67578125 C58.97582642 1.60583679 58.97582642 1.60583679 61.6953125 0.24609375 C68.22864583 0.01276042 68.22864583 0.01276042 70.6953125 1.24609375 C70.13104521 5.75351464 68.94163351 9.23877437 66.9453125 13.30859375 C64.83465522 17.73594867 62.91075952 22.15114637 61.1953125 26.74609375 C59.07723505 32.39657778 56.62499764 37.82752903 54.046875 43.28125 C52.88537939 45.82915511 51.876435 48.35791332 50.9453125 50.99609375 C49.6953125 54.24609375 49.6953125 54.24609375 47.6953125 55.24609375 C45.8203125 55.37890625 45.8203125 55.37890625 43.6953125 55.37109375 C42.6434375 55.37496094 42.6434375 55.37496094 41.5703125 55.37890625 C39.6953125 55.24609375 39.6953125 55.24609375 37.6953125 54.24609375 C37.6953125 52.92609375 37.6953125 51.60609375 37.6953125 50.24609375 C38.3553125 50.24609375 39.0153125 50.24609375 39.6953125 50.24609375 C39.7984375 49.44171875 39.9015625 48.63734375 40.0078125 47.80859375 C40.7164547 44.13653873 41.80749163 40.80613339 43.07421875 37.296875 C43.8402403 35.12468681 43.8402403 35.12468681 43.6953125 32.24609375 C43.0353125 32.24609375 42.3753125 32.24609375 41.6953125 32.24609375 C41.24091797 30.92158203 41.24091797 30.92158203 40.77734375 29.5703125 C38.11102529 21.93233561 35.19835589 14.55031187 31.6953125 7.24609375 C30.7053125 7.90609375 29.7153125 8.56609375 28.6953125 9.24609375 C26.36331862 9.32514439 24.02698628 9.33408144 21.6953125 9.24609375 C22.1903125 11.72109375 22.1903125 11.72109375 22.6953125 14.24609375 C23.6853125 14.57609375 24.6753125 14.90609375 25.6953125 15.24609375 C25.6953125 15.90609375 25.6953125 16.56609375 25.6953125 17.24609375 C26.6234375 17.67921875 26.6234375 17.67921875 27.5703125 18.12109375 C29.6953125 19.24609375 29.6953125 19.24609375 31.6953125 21.24609375 C31.99609375 24.109375 31.99609375 24.109375 32.0078125 27.55859375 C32.02457031 28.68910156 32.04132813 29.81960937 32.05859375 30.984375 C31.65940937 34.56844981 30.86721497 36.39578818 28.6953125 39.24609375 C23.82277762 42.16961468 20.34697062 42.59709476 14.7578125 41.78515625 C12.6953125 41.24609375 12.6953125 41.24609375 10.0703125 39.49609375 C9.2865625 39.08359375 8.5028125 38.67109375 7.6953125 38.24609375 C4.7053748 39.36092201 4.7053748 39.36092201 2.71484375 40.40234375 C-3.088962 42.82714461 -10.30292052 42.7465355 -16.3046875 41.24609375 C-22.64727726 37.82109528 -27.01074901 33.13810451 -29.3046875 26.24609375 C-30.05510465 19.72623562 -29.92642326 12.90505588 -26.3046875 7.24609375 C-19.13807699 -0.44308211 -10.43826808 -3.4145521 0 0 Z M-13.9921875 10.93359375 C-16.52182283 13.46322908 -17.01289516 14.74458571 -17.3046875 18.24609375 C-12.4055526 16.94632327 -7.92909175 15.32235688 -3.3046875 13.24609375 C-5.05403648 11.16276296 -5.05403648 11.16276296 -7.3046875 9.24609375 C-11.2689901 8.89158166 -11.2689901 8.89158166 -13.9921875 10.93359375 Z M8.6953125 14.24609375 C8.458125 14.86718018 8.2209375 15.4882666 7.9765625 16.12817383 C6.34409692 18.82665686 5.16028709 19.16491484 2.1953125 20.1328125 C1.3084375 20.43123047 0.4215625 20.72964844 -0.4921875 21.03710938 C-1.4203125 21.33294922 -2.3484375 21.62878906 -3.3046875 21.93359375 C-5.13825417 22.54096271 -6.97159858 23.14900317 -8.8046875 23.7578125 C-9.619375 24.02037842 -10.4340625 24.28294434 -11.2734375 24.5534668 C-13.33750235 25.20641118 -13.33750235 25.20641118 -15.3046875 26.24609375 C-14.55318727 29.52382879 -14.55318727 29.52382879 -11.3046875 31.24609375 C-4.70446567 31.97115851 1.38171664 31.15208495 7.6953125 29.24609375 C7.6953125 30.23609375 7.6953125 31.22609375 7.6953125 32.24609375 C8.3553125 32.24609375 9.0153125 32.24609375 9.6953125 32.24609375 C10.0253125 31.58609375 10.3553125 30.92609375 10.6953125 30.24609375 C13.6653125 30.57609375 16.6353125 30.90609375 19.6953125 31.24609375 C20.3553125 29.92609375 21.0153125 28.60609375 21.6953125 27.24609375 C20.12414954 25.51781449 18.90269927 24.33975229 16.7578125 23.37109375 C13.02427064 21.33461637 11.00976837 17.71777755 8.6953125 14.24609375 Z " fill="#EC7F20" transform="translate(409.3046875,203.75390625)"/>
<path d="M0 0 C1.11246094 -0.02900391 2.22492188 -0.05800781 3.37109375 -0.08789062 C10.50212091 -0.14248624 15.77707374 0.75582428 22 4.3125 C22 4.9725 22 5.6325 22 6.3125 C22.99 6.6425 23.98 6.9725 25 7.3125 C29.01887553 13.68596379 28.75830859 20.01273817 28 27.3125 C26.51309366 32.2841048 23.95000983 35.92677729 20 39.3125 C20.36351562 39.85777344 20.72703125 40.40304688 21.1015625 40.96484375 C22.15865506 42.55048259 23.21316314 44.13784627 24.265625 45.7265625 C25.40267341 47.42189144 26.55842368 49.10485792 27.734375 50.7734375 C28.27578125 51.54945313 28.8171875 52.32546875 29.375 53.125 C29.87773437 53.83269531 30.38046875 54.54039062 30.8984375 55.26953125 C32 57.3125 32 57.3125 32 61.3125 C27.96036819 62.65904394 24.21872289 63.01308214 20 62.3125 C17.4375 59.9375 17.4375 59.9375 16 57.3125 C16 56.6525 16 55.9925 16 55.3125 C15.34 55.3125 14.68 55.3125 14 55.3125 C12.2734375 52.9765625 12.2734375 52.9765625 10.375 49.9375 C9.42753906 48.44089844 9.42753906 48.44089844 8.4609375 46.9140625 C7 44.3125 7 44.3125 7 42.3125 C4.36 42.3125 1.72 42.3125 -1 42.3125 C-1 48.5825 -1 54.8525 -1 61.3125 C-10 62.3125 -10 62.3125 -13 61.3125 C-13.02312792 53.50674805 -13.04091738 45.70100405 -13.05181217 37.89522648 C-13.05704002 34.2710404 -13.06413587 30.6468777 -13.07543945 27.02270508 C-13.08627184 23.52790025 -13.09227758 20.03311796 -13.09487724 16.53829765 C-13.09763551 14.55010611 -13.10544688 12.56192369 -13.11329651 10.57374573 C-13.11337204 9.37257614 -13.11344757 8.17140656 -13.11352539 6.93383789 C-13.115746 5.87016495 -13.11796661 4.806492 -13.12025452 3.71058655 C-12.82674992 -2.1424112 -4.48198642 0.03789729 0 0 Z M-1 12.3125 C-1 17.9225 -1 23.5325 -1 29.3125 C0.8975 29.395 2.795 29.4775 4.75 29.5625 C6.35101563 29.63210937 6.35101563 29.63210937 7.984375 29.703125 C11.07914058 29.55618724 11.07914058 29.55618724 13.328125 27.546875 C15.99783361 23.97894667 16 21.7683286 16 17.3125 C14.15579697 14.8323649 12.73717673 13.68108837 10 12.3125 C6.32984725 12.1747315 2.67388652 12.26978039 -1 12.3125 Z " fill="#F9841C" transform="translate(168,182.6875)"/>
<path d="M0 0 C7.6502076 4.83992726 13.33183943 10.06285314 16.0625 18.9375 C17.20346622 27.34115504 16.29869785 35.33986719 11.36328125 42.3515625 C5.69891659 49.18441103 0.45673099 52.70545851 -8.375 53.8125 C-17.7696685 54.31786837 -24.71154456 52.05500791 -31.9375 45.9375 C-37.95903746 39.54968897 -39.39158513 32.31242938 -39.1796875 23.70703125 C-38.45496747 15.41950708 -35.20450355 9.40774977 -28.9375 3.9375 C-20.8836312 -2.08463057 -9.52336771 -3.47297125 0 0 Z M-15.921875 2.109375 C-22.91780955 3.12257931 -27.28790793 6.7557257 -31.9375 11.9375 C-35.75092077 17.75752714 -36.47756198 23.00889991 -35.9375 29.9375 C-34.46844153 36.23346486 -32.84907682 40.63987028 -27.9375 44.9375 C-27.2775 44.9375 -26.6175 44.9375 -25.9375 44.9375 C-25.9375 45.5975 -25.9375 46.2575 -25.9375 46.9375 C-18.94312249 51.05287869 -12.88126732 51.69727373 -4.9375 49.9375 C-4.2775 49.2775 -3.6175 48.6175 -2.9375 47.9375 C-5.4125 45.4625 -5.4125 45.4625 -7.9375 42.9375 C-10.40550047 44.08923355 -11.98533565 44.98533565 -13.9375 46.9375 C-18.15094146 46.78178586 -20.38217668 43.85864087 -23.1875 41 C-24.07953125 40.10410156 -24.9715625 39.20820313 -25.890625 38.28515625 C-27.9375 35.9375 -27.9375 35.9375 -27.9375 33.9375 C-26.31123596 32.55517557 -24.6449998 31.21812485 -22.9375 29.9375 C-24.23049694 27.05312221 -25.59691363 25.06530579 -27.9375 22.9375 C-26.0392982 18.2782774 -22.63684166 15.17756013 -18.625 12.25 C-18.068125 11.816875 -17.51125 11.38375 -16.9375 10.9375 C-16.9375 10.2775 -16.9375 9.6175 -16.9375 8.9375 C-15.9475 8.9375 -14.9575 8.9375 -13.9375 8.9375 C-13.69 9.55625 -13.4425 10.175 -13.1875 10.8125 C-11.73121361 13.28818687 -10.55937494 13.88875002 -7.9375 14.9375 C-6.56187146 13.64784824 -5.22983607 12.31060707 -3.9375 10.9375 C-3.9375 10.2775 -3.9375 9.6175 -3.9375 8.9375 C1.25434444 11.53342222 5.30004342 15.57726994 9.0625 19.9375 C9.5575 21.4225 9.5575 21.4225 10.0625 22.9375 C9.2375 23.72125 8.4125 24.505 7.5625 25.3125 C4.83261494 27.57471264 4.83261494 27.57471264 5.0625 29.9375 C5.7225 29.9375 6.3825 29.9375 7.0625 29.9375 C7.35125 30.576875 7.64 31.21625 7.9375 31.875 C8.89073451 34.08956079 8.89073451 34.08956079 11.0625 34.9375 C14.04077151 29.71370633 13.66229054 24.48660981 12.3125 18.75 C9.56774022 12.57429049 5.80733447 7.55753268 0.0625 3.9375 C-5.2421878 2.02672052 -10.35175043 1.62692327 -15.921875 2.109375 Z M7.0625 38.9375 C8.0625 40.9375 8.0625 40.9375 8.0625 40.9375 Z M4.0625 41.9375 C2.42573743 43.8975281 2.42573743 43.8975281 1.0625 45.9375 C4.18447478 44.6285428 4.18447478 44.6285428 6.0625 41.9375 C5.4025 41.9375 4.7425 41.9375 4.0625 41.9375 Z " fill="#FB831A" transform="translate(116.9375,188.0625)"/>
<path d="M0 0 C0.9075 0.00257813 1.815 0.00515625 2.75 0.0078125 C4.11125 0.00394531 4.11125 0.00394531 5.5 0 C7.75 0.1328125 7.75 0.1328125 8.75 1.1328125 C8.82319621 3.82936104 8.84242537 6.49972708 8.8125 9.1953125 C8.80798828 9.95392578 8.80347656 10.71253906 8.79882812 11.49414062 C8.7870068 13.37373121 8.76907078 15.25328149 8.75 17.1328125 C10.049375 17.1121875 11.34875 17.0915625 12.6875 17.0703125 C14.04165633 17.04881796 15.39756083 17.06133051 16.75 17.1328125 C17.75 18.1328125 17.75 18.1328125 17.84765625 20.19921875 C17.83605469 21.02292969 17.82445312 21.84664062 17.8125 22.6953125 C17.80347656 23.52160156 17.79445313 24.34789062 17.78515625 25.19921875 C17.77355469 25.83730469 17.76195312 26.47539062 17.75 27.1328125 C15.75 28.1328125 15.75 28.1328125 8.75 28.1328125 C8.75 37.7028125 8.75 47.2728125 8.75 57.1328125 C5.12 57.1328125 1.49 57.1328125 -2.25 57.1328125 C-3.25 56.1328125 -3.25 56.1328125 -3.36352539 53.44897461 C-3.35828857 52.28116455 -3.35305176 51.11335449 -3.34765625 49.91015625 C-3.34443359 48.65009766 -3.34121094 47.39003906 -3.33789062 46.09179688 C-3.32953403 44.75130141 -3.32106907 43.41080662 -3.3125 42.0703125 C-3.3074866 40.72591308 -3.30292342 39.3815119 -3.29882812 38.03710938 C-3.28699488 34.73563309 -3.27050971 31.43424447 -3.25 28.1328125 C-4.9 27.8028125 -6.55 27.4728125 -8.25 27.1328125 C-8.25 24.1628125 -8.25 21.1928125 -8.25 18.1328125 C-6.6 17.4728125 -4.95 16.8128125 -3.25 16.1328125 C-3.26160156 15.06160156 -3.27320313 13.99039063 -3.28515625 12.88671875 C-3.29453299 11.48958507 -3.30363331 10.09244951 -3.3125 8.6953125 C-3.32506836 7.63473633 -3.32506836 7.63473633 -3.33789062 6.55273438 C-3.34653588 4.74587691 -3.30220011 2.93893647 -3.25 1.1328125 C-2.25 0.1328125 -2.25 0.1328125 0 0 Z " fill="#F88521" transform="translate(363.25,186.8671875)"/>
<path d="M0 0 C3.13897378 2.03110068 4.4548312 4.0346624 6.125 7.375 C6.78403459 11.67906538 6.59997559 14.66253662 4.125 18.375 C2.36914062 19.26635742 2.36914062 19.26635742 0.28125 19.98046875 C-0.47027344 20.24150391 -1.22179687 20.50253906 -1.99609375 20.77148438 C-2.78113281 21.03251953 -3.56617188 21.29355469 -4.375 21.5625 C-5.55255859 21.97145508 -5.55255859 21.97145508 -6.75390625 22.38867188 C-12.55856438 24.375 -12.55856438 24.375 -14.875 24.375 C-13.57601606 26.60376774 -13.57601606 26.60376774 -10.875 28.375 C-4.97474152 29.15564958 -0.3544688 28.57430652 5.125 26.375 C7.71987555 27.67243778 8.14769781 28.66862471 9.125 31.375 C8.75 34.125 8.75 34.125 8.125 36.375 C1.02897952 39.04229848 -6.35685098 41.60510263 -13.875 39.375 C-13.875 38.715 -13.875 38.055 -13.875 37.375 C-15.855 36.715 -17.835 36.055 -19.875 35.375 C-19.875 34.715 -19.875 34.055 -19.875 33.375 C-20.535 33.045 -21.195 32.715 -21.875 32.375 C-21.215 32.375 -20.555 32.375 -19.875 32.375 C-20.205 31.055 -20.535 29.735 -20.875 28.375 C-22.195 28.705 -23.515 29.035 -24.875 29.375 C-26.96730769 24.94423077 -26.96730769 24.94423077 -26.5 22.0625 C-26.29375 21.505625 -26.0875 20.94875 -25.875 20.375 C-25.215 20.375 -24.555 20.375 -23.875 20.375 C-24.205 19.055 -24.535 17.735 -24.875 16.375 C-24.235625 16.271875 -23.59625 16.16875 -22.9375 16.0625 C-21.9165625 15.7221875 -21.9165625 15.7221875 -20.875 15.375 C-20.545 14.385 -20.215 13.395 -19.875 12.375 C-19.215 12.375 -18.555 12.375 -17.875 12.375 C-17.875 14.025 -17.875 15.675 -17.875 17.375 C-17.12734375 17.0140625 -16.3796875 16.653125 -15.609375 16.28125 C-14.62453125 15.8171875 -13.6396875 15.353125 -12.625 14.875 C-11.65046875 14.4109375 -10.6759375 13.946875 -9.671875 13.46875 C-6.875 12.375 -6.875 12.375 -2.875 12.375 C-3.86458997 9.30949408 -3.86458997 9.30949408 -5.875 6.375 C-9.46885054 5.39626462 -9.46885054 5.39626462 -12.875 5.375 C-12.875 6.035 -12.875 6.695 -12.875 7.375 C-13.473125 7.519375 -14.07125 7.66375 -14.6875 7.8125 C-16.43650404 8.2622439 -18.16177023 8.80392341 -19.875 9.375 C-20.535 8.715 -21.195 8.055 -21.875 7.375 C-21.09125 6.9625 -20.3075 6.55 -19.5 6.125 C-16.75992228 4.29828152 -16.14164653 3.29803045 -14.875 0.375 C-10.53030706 -1.79734647 -4.63012559 -1.00654904 0 0 Z " fill="#FA851D" transform="translate(228.875,205.625)"/>
<path d="M0 0 C7.6502076 4.83992726 13.33183943 10.06285314 16.0625 18.9375 C17.03567375 26.10529895 16.59762343 33.5120965 13.0625 39.9375 C10.58336684 43.13543508 7.91561284 46.07083318 5.0625 48.9375 C4 47.0625 4 47.0625 3.0625 44.9375 C3.5575 43.9475 3.5575 43.9475 4.0625 42.9375 C4.0625 41.9475 4.0625 40.9575 4.0625 39.9375 C4.7225 39.9375 5.3825 39.9375 6.0625 39.9375 C6.0625 38.9475 6.0625 37.9575 6.0625 36.9375 C6.7225 36.9375 7.3825 36.9375 8.0625 36.9375 C7.7325 35.2875 7.4025 33.6375 7.0625 31.9375 C8.0525 32.5975 9.0425 33.2575 10.0625 33.9375 C12.77765009 29.86477486 12.4560651 26.70947686 12.0625 21.9375 C10.3103373 14.49080854 6.29176374 9.45794266 0.12109375 5.1328125 C-5.94679367 1.60952303 -14.28213712 2.51261513 -20.9375 3.9375 C-26.63980428 6.72300061 -30.91869446 11.3986481 -33.9375 16.9375 C-36.17570873 23.6521262 -35.08156264 30.37919076 -32.9375 36.9375 C-32.793125 37.72125 -32.64875 38.505 -32.5 39.3125 C-32.314375 39.84875 -32.12875 40.385 -31.9375 40.9375 C-30.9475 41.2675 -29.9575 41.5975 -28.9375 41.9375 C-27.25 43.375 -27.25 43.375 -25.9375 44.9375 C-25.9375 45.5975 -25.9375 46.2575 -25.9375 46.9375 C-18.92154546 50.07341907 -12.48335474 50.56671864 -4.9375 48.9375 C-4.4425 47.9475 -4.4425 47.9475 -3.9375 46.9375 C-2.9475 47.2675 -1.9575 47.5975 -0.9375 47.9375 C-1.4325 48.9275 -1.4325 48.9275 -1.9375 49.9375 C-0.6175 50.2675 0.7025 50.5975 2.0625 50.9375 C-6.15929911 54.15709833 -14.1124391 55.22528827 -22.5234375 51.921875 C-30.02779343 47.98271142 -35.93823721 42.30357362 -38.53125 34.046875 C-40.16332976 25.5726147 -39.27099023 17.05811138 -34.53125 9.77734375 C-26.24454471 -0.67875845 -12.8370808 -4.6814125 0 0 Z M7.0625 38.9375 C8.0625 40.9375 8.0625 40.9375 8.0625 40.9375 Z " fill="#AD6F2E" transform="translate(116.9375,188.0625)"/>
<path d="M0 0 C1.98103008 4.14304801 2.25731616 7.52389035 2.265625 12.09375 C2.26753845 12.76289429 2.2694519 13.43203857 2.27142334 14.12145996 C2.27277861 15.53003314 2.26912833 16.9386191 2.26074219 18.34716797 C2.25003268 20.49345162 2.26065923 22.63889839 2.2734375 24.78515625 C2.27211579 26.158856 2.26955315 27.53255523 2.265625 28.90625 C2.26336914 30.14697266 2.26111328 31.38769531 2.25878906 32.66601562 C2.00933827 35.87969486 1.3811254 38.11156893 0 41 C-3.3 40.67 -6.6 40.34 -10 40 C-10 27.13 -10 14.26 -10 1 C-6.78548731 -0.60725635 -3.56387464 -0.05748185 0 0 Z " fill="#FA851D" transform="translate(351,204)"/>
<path d="M0 0 C2.97 0 5.94 0 9 0 C9.33 1.32 9.66 2.64 10 4 C10 3.01 10 2.02 10 1 C11.65 1 13.3 1 15 1 C15 3.31 15 5.62 15 8 C13.51886719 8.25523437 13.51886719 8.25523437 12.0078125 8.515625 C10.72648437 8.75796875 9.44515625 9.0003125 8.125 9.25 C6.84882813 9.48203125 5.57265625 9.7140625 4.2578125 9.953125 C1.00726847 10.67539885 1.00726847 10.67539885 -0.43359375 12.73046875 C-1.14398573 15.57693591 -1.22748994 18.12869226 -1.1875 21.0625 C-1.18105469 22.10535156 -1.17460937 23.14820313 -1.16796875 24.22265625 C-1.11482965 27.08614608 -1.11482965 27.08614608 0 30 C0.66 30 1.32 30 2 30 C2 31.65 2 33.3 2 35 C1.34 34.67 0.68 34.34 0 34 C-2.21081851 33.89459074 -2.21081851 33.89459074 -5 35 C-5.66 34.67 -6.32 34.34 -7 34 C-7 33.01 -7 32.02 -7 31 C-7.61875 30.9175 -8.2375 30.835 -8.875 30.75 C-11 30 -11 30 -12.1171875 28.22265625 C-14.4866773 22.25699388 -12.99646865 15.86462667 -11 10 C-10.34 10 -9.68 10 -9 10 C-9 8.68 -9 7.36 -9 6 C-7.35 6.33 -5.7 6.66 -4 7 C-4.33 6.01 -4.66 5.02 -5 4 C-4.67 3.34 -4.34 2.68 -4 2 C-2.68 2 -1.36 2 0 2 C0 1.34 0 0.68 0 0 Z " fill="#F8841B" transform="translate(252,205)"/>
<path d="M0 0 C7.35678392 -0.36180905 7.35678392 -0.36180905 10 1.125 C11.42098605 3.78934884 11.19767261 6.03491085 11 9 C11.99 9 12.98 9 14 9 C14.13277344 9.61488281 14.26554687 10.22976562 14.40234375 10.86328125 C14.57894531 11.67152344 14.75554687 12.47976562 14.9375 13.3125 C15.11152344 14.11300781 15.28554688 14.91351563 15.46484375 15.73828125 C15.99886159 18.145401 15.99886159 18.145401 17 21 C18.65 21 20.3 21 22 21 C21.34 21.66 20.68 22.32 20 23 C20.33 23.99 20.66 24.98 21 26 C21.99 25.01 22.98 24.02 24 23 C25.0257259 27.41062136 25.03684712 29.92630576 23 34 C22.34 34 21.68 34 21 34 C21 34.99 21 35.98 21 37 C20.34 37 19.68 37 19 37 C18.67 37.99 18.34 38.98 18 40 C15.5625 41.125 15.5625 41.125 13 42 C12.01 42.495 12.01 42.495 11 43 C11.144375 42.29875 11.28875 41.5975 11.4375 40.875 C11.7159375 39.451875 11.7159375 39.451875 12 38 C12.20625 36.96875 12.4125 35.9375 12.625 34.875 C13.22097708 31.93580872 13.22097708 31.93580872 12 29 C11.34 29 10.68 29 10 29 C10 28.34 10 27.68 10 27 C9.34 27 8.68 27 8 27 C5.06868396 19.44107336 2.84097972 11.89158824 1 4 C0.66927861 2.6660164 0.33703779 1.33240175 0 0 Z " fill="#FA841B" transform="translate(442,206)"/>
<path d="M0 0 C2.64 0 5.28 0 8 0 C10.45233288 3.73290261 10.17346789 7.32106265 9.9765625 11.609375 C9.95153656 12.33618469 9.92651062 13.06299438 9.90072632 13.81182861 C9.81878887 16.12504558 9.72210045 18.43737481 9.625 20.75 C9.56673343 22.32157874 9.50943074 23.89319354 9.453125 25.46484375 C9.31324976 29.31040311 9.16014585 33.15523361 9 37 C6.69 37 4.38 37 2 37 C1.67 35.35 1.34 33.7 1 32 C0.071875 32.20625 -0.85625 32.4125 -1.8125 32.625 C-5 33 -5 33 -8 31 C-6.68 30.34 -5.36 29.68 -4 29 C-4 28.01 -4 27.02 -4 26 C-3.01 26 -2.02 26 -1 26 C-0.67 17.42 -0.34 8.84 0 0 Z " fill="#FB851D" transform="translate(327,206)"/>
<path d="M0 0 C1.23556641 0.01740234 1.23556641 0.01740234 2.49609375 0.03515625 C3.32238281 0.04417969 4.14867187 0.05320313 5 0.0625 C5.63808594 0.07410156 6.27617187 0.08570313 6.93359375 0.09765625 C6.91296875 0.84015625 6.89234375 1.58265625 6.87109375 2.34765625 C6.79610312 4.99204967 6.79610312 4.99204967 7.55859375 6.97265625 C7.93359375 9.09765625 7.93359375 9.09765625 6.93359375 11.984375 C5.3469202 17.27328682 5.97062985 22.59055788 6.30859375 28.03515625 C6.3653125 29.10056641 6.42203125 30.16597656 6.48046875 31.26367188 C6.62103001 33.8757686 6.77234523 36.4867687 6.93359375 39.09765625 C3.96359375 38.76765625 0.99359375 38.43765625 -2.06640625 38.09765625 C-3.27228429 34.48002213 -3.2097301 31.16755075 -3.19921875 27.40234375 C-3.20017548 26.65429474 -3.2011322 25.90624573 -3.20211792 25.13552856 C-3.20279768 23.55698563 -3.20095762 21.97843989 -3.19677734 20.39990234 C-3.19141115 17.9748717 -3.19673689 15.550025 -3.203125 13.125 C-3.20246448 11.59244751 -3.20118385 10.05989513 -3.19921875 8.52734375 C-3.20124298 7.7982077 -3.20326721 7.06907166 -3.20535278 6.31784058 C-3.17637632 0.1501123 -3.17637632 0.1501123 0 0 Z " fill="#FB841B" transform="translate(275.06640625,204.90234375)"/>
<path d="M0 0 C0.76183594 -0.00257813 1.52367187 -0.00515625 2.30859375 -0.0078125 C4.5625 0.125 4.5625 0.125 6.45703125 0.62890625 C9.27393335 1.29262901 11.92286407 1.21890909 14.8125 1.1875 C15.89015625 1.17847656 16.9678125 1.16945312 18.078125 1.16015625 C19.30789063 1.14275391 19.30789063 1.14275391 20.5625 1.125 C21.23369549 2.5812545 21.89931807 4.04007867 22.5625 5.5 C22.93375 6.31210938 23.305 7.12421875 23.6875 7.9609375 C24.5625 10.125 24.5625 10.125 24.5625 12.125 C23.5725 12.125 22.5825 12.125 21.5625 12.125 C21.0675 8.165 21.0675 8.165 20.5625 4.125 C17.2625 3.795 13.9625 3.465 10.5625 3.125 C10.85125 3.78886719 11.14 4.45273438 11.4375 5.13671875 C11.80875 6.01972656 12.18 6.90273437 12.5625 7.8125 C12.93375 8.68261719 13.305 9.55273438 13.6875 10.44921875 C14.58120488 13.1822002 14.72699676 15.27200934 14.5625 18.125 C12.38395293 14.8571794 11.06489966 11.74441735 9.5625 8.125 C8.5725 8.785 7.5825 9.445 6.5625 10.125 C3.82259592 10.09356707 1.27832146 9.57021663 -1.4375 9.125 C-1.4375 8.465 -1.4375 7.805 -1.4375 7.125 C1.2025 7.455 3.8425 7.785 6.5625 8.125 C6.5625 6.805 6.5625 5.485 6.5625 4.125 C1.65965919 2.77671878 -1.19919967 3.48712989 -5.703125 5.43359375 C-7.4375 6.125 -7.4375 6.125 -9.4375 6.125 C-9.4375 10.745 -9.4375 15.365 -9.4375 20.125 C-8.7775 20.125 -8.1175 20.125 -7.4375 20.125 C-7.1075 21.445 -6.7775 22.765 -6.4375 24.125 C-7.0975 23.795 -7.7575 23.465 -8.4375 23.125 C-8.4375 22.465 -8.4375 21.805 -8.4375 21.125 C-9.4275 20.795 -10.4175 20.465 -11.4375 20.125 C-12.0975 19.465 -12.7575 18.805 -13.4375 18.125 C-14.07042969 18.55425781 -14.70335937 18.98351562 -15.35546875 19.42578125 C-19.33745321 21.62117192 -23.43030252 22.93169694 -27.75 24.3125 C-28.58595703 24.58513672 -29.42191406 24.85777344 -30.28320312 25.13867188 C-32.33285489 25.80627274 -34.3849413 26.46639082 -36.4375 27.125 C-36.4375 26.135 -36.4375 25.145 -36.4375 24.125 C-35.1175 24.125 -33.7975 24.125 -32.4375 24.125 C-31.7236014 21.65655755 -31.7236014 21.65655755 -31.4375 19.125 C-32.0975 19.125 -32.7575 19.125 -33.4375 19.125 C-33.1075 18.135 -32.7775 17.145 -32.4375 16.125 C-29.375 14.9375 -29.375 14.9375 -26.4375 14.125 C-26.4375 13.465 -26.4375 12.805 -26.4375 12.125 C-25.7775 12.125 -25.1175 12.125 -24.4375 12.125 C-25.10416667 14.79166667 -25.77083333 17.45833333 -26.4375 20.125 C-25.7775 19.795 -25.1175 19.465 -24.4375 19.125 C-24.1075 18.135 -23.7775 17.145 -23.4375 16.125 C-23.4375 16.785 -23.4375 17.445 -23.4375 18.125 C-20.4675 17.795 -17.4975 17.465 -14.4375 17.125 C-14.77974609 16.18527344 -14.77974609 16.18527344 -15.12890625 15.2265625 C-15.41636719 14.40929687 -15.70382812 13.59203125 -16 12.75 C-16.29003906 11.93789062 -16.58007812 11.12578125 -16.87890625 10.2890625 C-17.4375 8.125 -17.4375 8.125 -16.4375 6.125 C-14.4375 8.125 -14.4375 8.125 -14.4375 12.125 C-13.7775 12.125 -13.1175 12.125 -12.4375 12.125 C-12.355 11.0525 -12.2725 9.98 -12.1875 8.875 C-11.3746841 4.81092048 -10.66655115 3.59427441 -7.4375 1.125 C-4.64001159 0.19250386 -2.89429119 -0.00976152 0 0 Z " fill="#CB7324" transform="translate(431.4375,202.875)"/>
<path d="M0 0 C0.99 0.33 1.98 0.66 3 1 C3 1.66 3 2.32 3 3 C3.75391139 4.2872636 4.56619019 5.54066442 5.40625 6.7734375 C5.90253906 7.5159375 6.39882812 8.2584375 6.91015625 9.0234375 C7.96642996 10.5857883 9.02630666 12.1457095 10.08984375 13.703125 C10.58613281 14.44820312 11.08242187 15.19328125 11.59375 15.9609375 C12.05458984 16.63946777 12.51542969 17.31799805 12.99023438 18.01708984 C14 20 14 20 14 24 C9.96036819 25.34654394 6.21872289 25.70058214 2 25 C-0.5625 22.625 -0.5625 22.625 -2 20 C-2 19.34 -2 18.68 -2 18 C-2.66 18 -3.32 18 -4 18 C-5.7265625 15.6640625 -5.7265625 15.6640625 -7.625 12.625 C-8.25664062 11.62726563 -8.88828125 10.62953125 -9.5390625 9.6015625 C-11 7 -11 7 -11 5 C-13.64 5 -16.28 5 -19 5 C-19 11.27 -19 17.54 -19 24 C-20.32 23.67 -21.64 23.34 -23 23 C-22.01 23 -21.02 23 -20 23 C-20 16.73 -20 10.46 -20 4 C-11.6015625 3.70703125 -11.6015625 3.70703125 -9 4 C-7 7 -7 7 -7 10 C-6.01 10 -5.02 10 -4 10 C-4 9.34 -4 8.68 -4 8 C-3.34 8 -2.68 8 -2 8 C-2 7.34 -2 6.68 -2 6 C-1.34 5.67 -0.68 5.34 0 5 C0 3.35 0 1.7 0 0 Z " fill="#F0811B" transform="translate(186,220)"/>
<path d="M0 0 C0.9075 0.00257813 1.815 0.00515625 2.75 0.0078125 C4.11125 0.00394531 4.11125 0.00394531 5.5 0 C7.75 0.1328125 7.75 0.1328125 8.75 1.1328125 C8.82319621 3.82936104 8.84242537 6.49972708 8.8125 9.1953125 C8.80798828 9.95392578 8.80347656 10.71253906 8.79882812 11.49414062 C8.7870068 13.37373121 8.76907078 15.25328149 8.75 17.1328125 C8.42 17.1328125 8.09 17.1328125 7.75 17.1328125 C7.75 14.4928125 7.75 11.8528125 7.75 9.1328125 C6.43 9.4628125 5.11 9.7928125 3.75 10.1328125 C3.42 9.4728125 3.09 8.8128125 2.75 8.1328125 C3.08 7.1428125 3.41 6.1528125 3.75 5.1328125 C2.1 5.4628125 0.45 5.7928125 -1.25 6.1328125 C-0.59 6.1328125 0.07 6.1328125 0.75 6.1328125 C0.75 7.1228125 0.75 8.1128125 0.75 9.1328125 C0.09 9.1328125 -0.57 9.1328125 -1.25 9.1328125 C-1.25 10.1228125 -1.25 11.1128125 -1.25 12.1328125 C0.07 12.4628125 1.39 12.7928125 2.75 13.1328125 C2.43991116 14.73744699 2.12683713 16.34150481 1.8125 17.9453125 C1.63847656 18.83863281 1.46445312 19.73195312 1.28515625 20.65234375 C0.75 23.1328125 0.75 23.1328125 -0.25 26.1328125 C-0.91 26.1328125 -1.57 26.1328125 -2.25 26.1328125 C-2.11033274 29.84140481 -1.96216836 33.5496114 -1.8125 37.2578125 C-1.77318359 38.30453125 -1.73386719 39.35125 -1.69335938 40.4296875 C-1.48868904 45.40475092 -1.25723793 50.24051399 -0.25 55.1328125 C1.73 55.1328125 3.71 55.1328125 5.75 55.1328125 C5.75 52.4928125 5.75 49.8528125 5.75 47.1328125 C8.04633824 50.57731987 8.29016485 53.07093533 8.75 57.1328125 C6.93757948 57.15968529 5.12504767 57.17914965 3.3125 57.1953125 C2.30316406 57.20691406 1.29382813 57.21851563 0.25390625 57.23046875 C-2.25 57.1328125 -2.25 57.1328125 -3.25 56.1328125 C-3.33767112 54.06019174 -3.35695873 51.98460956 -3.34765625 49.91015625 C-3.34443359 48.65009766 -3.34121094 47.39003906 -3.33789062 46.09179688 C-3.32953403 44.75130141 -3.32106907 43.41080662 -3.3125 42.0703125 C-3.3074866 40.72591308 -3.30292342 39.3815119 -3.29882812 38.03710938 C-3.28699488 34.73563309 -3.27050971 31.43424447 -3.25 28.1328125 C-4.9 27.8028125 -6.55 27.4728125 -8.25 27.1328125 C-8.25 24.1628125 -8.25 21.1928125 -8.25 18.1328125 C-6.6 17.4728125 -4.95 16.8128125 -3.25 16.1328125 C-3.26160156 15.06160156 -3.27320313 13.99039063 -3.28515625 12.88671875 C-3.29453299 11.48958507 -3.30363331 10.09244951 -3.3125 8.6953125 C-3.32506836 7.63473633 -3.32506836 7.63473633 -3.33789062 6.55273438 C-3.34653588 4.74587691 -3.30220011 2.93893647 -3.25 1.1328125 C-2.25 0.1328125 -2.25 0.1328125 0 0 Z " fill="#F3821F" transform="translate(363.25,186.8671875)"/>
<path d="M0 0 C2.31 0 4.62 0 7 0 C7.04945386 4.35992871 7.08574488 8.71970862 7.10986328 13.07983398 C7.11991821 14.56293583 7.13356404 16.04601788 7.15087891 17.52905273 C7.17515006 19.66134531 7.18648799 21.79337569 7.1953125 23.92578125 C7.20578613 25.20880127 7.21625977 26.49182129 7.22705078 27.8137207 C7 31 7 31 5 34 C2.13275314 33.42655063 1.1385485 33.1385485 -1 31 C-1.33 31 -1.66 31 -2 31 C-2.05831395 26.95839444 -2.09370212 22.91689795 -2.125 18.875 C-2.14175781 17.73289063 -2.15851563 16.59078125 -2.17578125 15.4140625 C-2.18222656 14.30546875 -2.18867188 13.196875 -2.1953125 12.0546875 C-2.20578613 11.03874512 -2.21625977 10.02280273 -2.22705078 8.97607422 C-1.97841818 5.71711571 -1.14878364 3.04884793 0 0 Z " fill="#FC841B" transform="translate(300,207)"/>
<path d="M0 0 C0 0.99 0 1.98 0 3 C0.66 3 1.32 3 2 3 C2.33 2.34 2.66 1.68 3 1 C3 2.65 3 4.3 3 6 C4.485 6.495 4.485 6.495 6 7 C6 7.99 6 8.98 6 10 C6.99 10.33 7.98 10.66 9 11 C7.3125 11.6875 7.3125 11.6875 5 12 C4.236875 11.46375 3.47375 10.9275 2.6875 10.375 C1.800625 9.92125 0.91375 9.4675 0 9 C-2.9899377 10.11482826 -2.9899377 10.11482826 -4.98046875 11.15625 C-10.81314371 13.59311227 -17.95718388 13.45027587 -24 12 C-26.4375 10.4375 -26.4375 10.4375 -28 9 C-25.03 9 -22.06 9 -19 9 C-18.67 7.35 -18.34 5.7 -18 4 C-16.68 4 -15.36 4 -14 4 C-14 3.34 -14 2.68 -14 2 C-9.15758367 0.66416101 -5.06562383 -0.25328119 0 0 Z M6 6 C8 7 8 7 8 7 Z " fill="#E67C1E" transform="translate(417,233)"/>
<path d="M0 0 C3.13897378 2.03110068 4.4548312 4.0346624 6.125 7.375 C6.55593288 10.23724555 6.41825392 12.44246079 6.125 15.375 C4.125 17.375 4.125 17.375 1.5 17.5 C0.71625 17.45875 -0.0675 17.4175 -0.875 17.375 C-0.854375 16.42625 -0.83375 15.4775 -0.8125 14.5 C-0.64948174 11.46833717 -0.64948174 11.46833717 -1.875 9.375 C-2.865 9.045 -3.855 8.715 -4.875 8.375 C-5.205 7.715 -5.535 7.055 -5.875 6.375 C-8.19656597 5.96770772 -10.5318787 5.63061323 -12.875 5.375 C-12.875 6.035 -12.875 6.695 -12.875 7.375 C-13.473125 7.519375 -14.07125 7.66375 -14.6875 7.8125 C-16.43650404 8.2622439 -18.16177023 8.80392341 -19.875 9.375 C-20.535 8.715 -21.195 8.055 -21.875 7.375 C-21.09125 6.9625 -20.3075 6.55 -19.5 6.125 C-16.75992228 4.29828152 -16.14164653 3.29803045 -14.875 0.375 C-10.53030706 -1.79734647 -4.63012559 -1.00654904 0 0 Z " fill="#FC841A" transform="translate(228.875,205.625)"/>
<path d="M0 0 C2.475 0.99 2.475 0.99 5 2 C5 3.32 5 4.64 5 6 C6.32 6 7.64 6 9 6 C9.66 9.96 10.32 13.92 11 18 C10.01 18.33 9.02 18.66 8 19 C8 19.99 8 20.98 8 22 C8.66 22 9.32 22 10 22 C8.125 26.875 8.125 26.875 7 28 C5.33382885 28.04063832 3.66611905 28.042721 2 28 C2.33 28.99 2.66 29.98 3 31 C1.68 31.33 0.36 31.66 -1 32 C-1.05399736 30.54207116 -1.09279177 29.08357288 -1.125 27.625 C-1.15980469 26.40683594 -1.15980469 26.40683594 -1.1953125 25.1640625 C-1 23 -1 23 1 21 C1.28634574 18.99557982 1.56923296 16.98898706 1.75390625 14.97265625 C2 13 2 13 3 10 C2.01 9.67 1.02 9.34 0 9 C0 8.01 0 7.02 0 6 C0.66 6 1.32 6 2 6 C2 5.01 2 4.02 2 3 C1.34 3 0.68 3 0 3 C0 2.01 0 1.02 0 0 Z " fill="#FC8419" transform="translate(362,190)"/>
<path d="M0 0 C0.66 0 1.32 0 2 0 C2 1.65 2 3.3 2 5 C2.515625 4.67 3.03125 4.34 3.5625 4 C6.78026512 2.67989123 9.5570528 2.86757895 13 3 C12.67 3.99 12.34 4.98 12 6 C11.34 6 10.68 6 10 6 C10 6.99 10 7.98 10 9 C8.02 9 6.04 9 4 9 C4 9.99 4 10.98 4 12 C3.34 12 2.68 12 2 12 C2.66 13.65 3.32 15.3 4 17 C4.99 17 5.98 17 7 17 C7 17.99 7 18.98 7 20 C5.35 20 3.7 20 2 20 C2 20.99 2 21.98 2 23 C1.34 23 0.68 23 0 23 C0 22.34 0 21.68 0 21 C-0.66 20.67 -1.32 20.34 -2 20 C-1.34 20 -0.68 20 0 20 C-0.33 18.68 -0.66 17.36 -1 16 C-2.32 16.33 -3.64 16.66 -5 17 C-7.09230769 12.56923077 -7.09230769 12.56923077 -6.625 9.6875 C-6.41875 9.130625 -6.2125 8.57375 -6 8 C-5.34 8 -4.68 8 -4 8 C-4.33 6.68 -4.66 5.36 -5 4 C-4.360625 3.896875 -3.72125 3.79375 -3.0625 3.6875 C-2.381875 3.460625 -1.70125 3.23375 -1 3 C-0.67 2.01 -0.34 1.02 0 0 Z " fill="#FD8419" transform="translate(209,218)"/>
<path d="M0 0 C2.19050021 0.09017996 4.378466 0.24666208 6.5625 0.4375 C7.76003906 0.53933594 8.95757812 0.64117187 10.19140625 0.74609375 C11.11824219 0.82988281 12.04507812 0.91367188 13 1 C13.67528223 2.57967807 14.33989694 4.16391903 15 5.75 C15.37125 6.63171875 15.7425 7.5134375 16.125 8.421875 C17 11 17 11 17 15 C12.545 15.495 12.545 15.495 8 16 C8 16.66 8 17.32 8 18 C7.01 18 6.02 18 5 18 C4.67 17.01 4.34 16.02 4 15 C5.4375 12.3125 5.4375 12.3125 7 10 C6.34 9.67 5.68 9.34 5 9 C4.67 8.01 4.34 7.02 4 6 C2.02 6 0.04 6 -2 6 C-1.125 1.125 -1.125 1.125 0 0 Z " fill="#F7831C" transform="translate(400,205)"/>
<path d="M0 0 C0 1.32 0 2.64 0 4 C-2.64 3.67 -5.28 3.34 -8 3 C-7.67 3.99 -7.34 4.98 -7 6 C-7.66 6 -8.32 6 -9 6 C-8.81870185 9.43793339 -8.81870185 9.43793339 -8 13 C-6.06402968 14.51294288 -6.06402968 14.51294288 -4 15 C-5.32 15 -6.64 15 -8 15 C-8 15.66 -8 16.32 -8 17 C-9.98 17.33 -11.96 17.66 -14 18 C-14 17.34 -14 16.68 -14 16 C-14.66 16 -15.32 16 -16 16 C-17.85117163 12.29765675 -17.45779276 8.04165608 -17 4 C-14.93503087 0.6960494 -13.23370195 0.09521191 -9.625 -1.375 C-5.65350182 -2.05974107 -3.64522536 -1.60034284 0 0 Z " fill="#FB841A" transform="translate(438,207)"/>
<path d="M0 0 C2.79734842 1.98758966 3.84278924 3.10165277 4.4375 6.5 C3.8959746 9.59443084 3.38460953 10.92308202 1 13 C-2.9427656 13.57349318 -5.09360864 13.5664946 -8.5 11.4375 C-10 9 -10 9 -9.9375 5.375 C-8.39784223 -0.16776797 -5.29368537 -0.64820637 0 0 Z " fill="#BE732B" transform="translate(350,184)"/>
<path d="M0 0 C1.9375 1.125 1.9375 1.125 3 3 C3.5 5.9375 3.5 5.9375 3 9 C0.8125 11.4375 0.8125 11.4375 -2 13 C-4.96659806 12.92764395 -6.6885399 12.15993897 -9.3125 10.8125 C-11 9 -11 9 -11.5 6 C-11 3 -11 3 -9.4375 1.125 C-6.09785142 -0.41637627 -3.63459282 -0.39650104 0 0 Z " fill="#DE7C22" transform="translate(490,232)"/>
<path d="M0 0 C1.13308594 -0.01417969 2.26617187 -0.02835938 3.43359375 -0.04296875 C6.41707979 0.17678865 8.05545423 0.62906614 10.5625 2.1875 C10.5625 2.5175 10.5625 2.8475 10.5625 3.1875 C6.9325 3.1875 3.3025 3.1875 -0.4375 3.1875 C-0.7675 4.5075 -1.0975 5.8275 -1.4375 7.1875 C1.0375 7.6825 1.0375 7.6825 3.5625 8.1875 C3.5625 8.8475 3.5625 9.5075 3.5625 10.1875 C4.2225 10.5175 4.8825 10.8475 5.5625 11.1875 C3.5625 12.1875 3.5625 12.1875 0.6875 11.625 C-2.6197462 11.16198553 -3.70932808 11.40369528 -6.4375 13.1875 C-6.4375 12.1975 -6.4375 11.2075 -6.4375 10.1875 C-5.7775 10.1875 -5.1175 10.1875 -4.4375 10.1875 C-4.4375 8.5375 -4.4375 6.8875 -4.4375 5.1875 C-7.0775 5.1875 -9.7175 5.1875 -12.4375 5.1875 C-12.7675 6.1775 -13.0975 7.1675 -13.4375 8.1875 C-14.0975 8.1875 -14.7575 8.1875 -15.4375 8.1875 C-16.83629348 11.68448371 -17.54944695 14.57627059 -17.4375 18.3125 C-17.4375 21.82229795 -17.5435147 23.34652206 -19.4375 26.1875 C-20.96959716 24.65540284 -20.64364547 23.25559947 -20.6875 21.125 C-20.57543839 15.23242689 -19.65818571 10.57936357 -15.5625 6.16796875 C-10.3802834 1.49063723 -7.06732009 0.04010965 0 0 Z " fill="#DD7E26" transform="translate(400.4375,202.8125)"/>
<path d="M0 0 C0.33 0 0.66 0 1 0 C1.495 14.355 1.495 14.355 2 29 C-2.36375943 31.18187972 -3.4657758 31.25414712 -8 30 C-9.875 28.4375 -9.875 28.4375 -11 27 C-11.598125 27.474375 -12.19625 27.94875 -12.8125 28.4375 C-18.11342483 32.22387488 -24.76376889 31.55789813 -31 31 C-33.85649913 30.01552798 -34.841662 29.2200048 -37 27 C-37 25.68 -37 24.36 -37 23 C-35.68 23.66 -34.36 24.32 -33 25 C-33 25.66 -33 26.32 -33 27 C-32.34 27 -31.68 27 -31 27 C-31 27.66 -31 28.32 -31 29 C-25.72 28.67 -20.44 28.34 -15 28 C-15 27.34 -15 26.68 -15 26 C-15.66 26 -16.32 26 -17 26 C-17 25.34 -17 24.68 -17 24 C-14.03 23.67 -11.06 23.34 -8 23 C-7 27 -7 27 -7 29 C-4.69 29 -2.38 29 0 29 C0 19.43 0 9.86 0 0 Z " fill="#BE6D28" transform="translate(336,214)"/>
<path d="M0 0 C0.99 0.33 1.98 0.66 3 1 C3 1.66 3 2.32 3 3 C4.29572383 5.02456848 5.6273318 7.02678947 7 9 C6.67 9.66 6.34 10.32 6 11 C5.01 10.34 4.02 9.68 3 9 C3 8.34 3 7.68 3 7 C2.34 7 1.68 7 1 7 C1.33 7.99 1.66 8.98 2 10 C1.01 10.66 0.02 11.32 -1 12 C-1.33 12.99 -1.66 13.98 -2 15 C-1.01 16.485 -1.01 16.485 0 18 C0.66 18.99 1.32 19.98 2 21 C1.67 21.99 1.34 22.98 1 24 C-2 20.25 -2 20.25 -2 18 C-2.66 18 -3.32 18 -4 18 C-5.7265625 15.6640625 -5.7265625 15.6640625 -7.625 12.625 C-8.25664062 11.62726563 -8.88828125 10.62953125 -9.5390625 9.6015625 C-11 7 -11 7 -11 5 C-13.64 5 -16.28 5 -19 5 C-19 11.27 -19 17.54 -19 24 C-20.32 23.67 -21.64 23.34 -23 23 C-22.01 23 -21.02 23 -20 23 C-20 16.73 -20 10.46 -20 4 C-11.6015625 3.70703125 -11.6015625 3.70703125 -9 4 C-7 7 -7 7 -7 10 C-6.01 10 -5.02 10 -4 10 C-4 9.34 -4 8.68 -4 8 C-3.34 8 -2.68 8 -2 8 C-2 7.34 -2 6.68 -2 6 C-1.34 5.67 -0.68 5.34 0 5 C0 3.35 0 1.7 0 0 Z " fill="#DE7D26" transform="translate(186,220)"/>
<path d="M0 0 C0 1.65 0 3.3 0 5 C-0.66 5 -1.32 5 -2 5 C-2.12375 5.598125 -2.2475 6.19625 -2.375 6.8125 C-3 9 -3 9 -5 12 C-7.625 12.6875 -7.625 12.6875 -10 13 C-10.33 13.99 -10.66 14.98 -11 16 C-11.66 16 -12.32 16 -13 16 C-14.19875732 10.55110309 -14.01092008 7.73144584 -11 3 C-7.68923336 -1.00050969 -4.90251304 -1.19250317 0 0 Z " fill="#FA841B" transform="translate(396,208)"/>
<path d="M0 0 C1.74965358 -0.05429959 3.49979787 -0.09292823 5.25 -0.125 C6.22453125 -0.14820313 7.1990625 -0.17140625 8.203125 -0.1953125 C11.08386566 0.00585654 12.6317702 0.37712824 15 2 C17.19796222 6.16042848 18.26780378 9.31343379 18 14 C18.33 14.66 18.66 15.32 19 16 C18.360625 16.28875 17.72125 16.5775 17.0625 16.875 C14.84793921 17.82823451 14.84793921 17.82823451 14 20 C10.98500617 21.06570252 8.1141567 21.13458267 4.9375 21.125 C3.65166016 21.12886719 3.65166016 21.12886719 2.33984375 21.1328125 C0 21 0 21 -3 20 C-3 14.06 -3 8.12 -3 2 C-2.34 2 -1.68 2 -1 2 C-1 7.61 -1 13.22 -1 19 C0.918125 18.896875 2.83625 18.79375 4.8125 18.6875 C5.89144531 18.62949219 6.97039062 18.57148438 8.08203125 18.51171875 C10.96518402 18.21915669 10.96518402 18.21915669 12.83984375 16.70703125 C14.18995333 14.72050638 14.5155271 13.38080174 14.75 11 C14.86601562 9.9790625 14.86601562 9.9790625 14.984375 8.9375 C15.10636877 6.77932647 15.10636877 6.77932647 14 4 C9.38 3.34 4.76 2.68 0 2 C0 1.34 0 0.68 0 0 Z " fill="#C9742A" transform="translate(168,193)"/>
<path d="M0 0 C0.99 0 1.98 0 3 0 C3.48400533 10.59433881 2.97613576 17.92258114 -4.1875 26.0625 C-5.4449037 27.38787147 -6.71123017 28.70510775 -8 30 C-9.0625 28.125 -9.0625 28.125 -10 26 C-9.67 25.34 -9.34 24.68 -9 24 C-9 23.01 -9 22.02 -9 21 C-8.34 21 -7.68 21 -7 21 C-7 20.01 -7 19.02 -7 18 C-6.34 18 -5.68 18 -5 18 C-5.33 16.35 -5.66 14.7 -6 13 C-5.01 13.66 -4.02 14.32 -3 15 C-0.73045369 11.59568053 -0.63450051 9.83475798 -0.375 5.8125 C-0.30023438 4.72582031 -0.22546875 3.63914063 -0.1484375 2.51953125 C-0.09945312 1.68808594 -0.05046875 0.85664063 0 0 Z M-6 20 C-5 22 -5 22 -5 22 Z " fill="#B36B28" transform="translate(130,207)"/>
<path d="M0 0 C1.14597656 -0.01224609 2.29195312 -0.02449219 3.47265625 -0.03710938 C4.57996094 -0.03904297 5.68726563 -0.04097656 6.828125 -0.04296875 C7.84293945 -0.04707764 8.85775391 -0.05118652 9.90332031 -0.05541992 C12.87569935 0.19822649 15.0555497 0.9406527 17.75 2.1875 C15.77 3.1775 15.77 3.1775 13.75 4.1875 C13.42 3.5275 13.09 2.8675 12.75 2.1875 C4.83 2.1875 -3.09 2.1875 -11.25 2.1875 C-11.58 21.3275 -11.91 40.4675 -12.25 60.1875 C-11.59 60.5175 -10.93 60.8475 -10.25 61.1875 C-11.24 61.1875 -12.23 61.1875 -13.25 61.1875 C-13.27312792 53.38174805 -13.29091738 45.57600405 -13.30181217 37.77022648 C-13.30704002 34.1460404 -13.31413587 30.5218777 -13.32543945 26.89770508 C-13.33627184 23.40290025 -13.34227758 19.90811796 -13.34487724 16.41329765 C-13.34763551 14.42510611 -13.35544688 12.43692369 -13.36329651 10.44874573 C-13.36337204 9.24757614 -13.36344757 8.04640656 -13.36352539 6.80883789 C-13.365746 5.74516495 -13.36796661 4.681492 -13.37025452 3.58558655 C-13.07450542 -2.31217055 -4.49632233 0.00249518 0 0 Z " fill="#A3622A" transform="translate(168.25,182.8125)"/>
<path d="M0 0 C6.15234375 -0.09765625 6.15234375 -0.09765625 8 0 C9 1 9 1 9.09765625 3.06640625 C9.08605469 3.89011719 9.07445312 4.71382812 9.0625 5.5625 C9.05347656 6.38878906 9.04445313 7.21507812 9.03515625 8.06640625 C9.02355469 8.70449219 9.01195312 9.34257812 9 10 C7 11 7 11 0 11 C0 17.6 0 24.2 0 31 C-0.33 31 -0.66 31 -1 31 C-1.02894547 27.54168414 -1.04678 24.08339928 -1.0625 20.625 C-1.07087891 19.64015625 -1.07925781 18.6553125 -1.08789062 17.640625 C-1.09111328 16.69960937 -1.09433594 15.75859375 -1.09765625 14.7890625 C-1.10289307 13.91975098 -1.10812988 13.05043945 -1.11352539 12.15478516 C-1 10 -1 10 0 8 C-0.66 8 -1.32 8 -2 8 C-2 7.01 -2 6.02 -2 5 C-1.34 4.67 -0.68 4.34 0 4 C0 2.68 0 1.36 0 0 Z " fill="#CF721E" transform="translate(372,204)"/>
<path d="M0 0 C1.9375 0.3125 1.9375 0.3125 4 1 C5.09658936 4.28976808 4.79953138 5.71303767 4 9 C5.65 9 7.3 9 9 9 C5.55641886 10.81508956 2.0046762 12.2239286 -1.625 13.625 C-3.34589844 14.29402344 -3.34589844 14.29402344 -5.1015625 14.9765625 C-8 16 -8 16 -10 16 C-8.68 17.65 -7.36 19.3 -6 21 C-7.65 21 -9.3 21 -11 21 C-11.66 19.35 -12.32 17.7 -13 16 C-12.34 16 -11.68 16 -11 16 C-11 15.01 -11 14.02 -11 13 C-9.02 13 -7.04 13 -5 13 C-5 12.01 -5 11.02 -5 10 C-3.5 8.3125 -3.5 8.3125 -2 7 C-3.65 7 -5.3 7 -7 7 C-4.23776722 4.23776722 -1.79293383 4.42143709 2 4 C1.34 2.68 0.68 1.36 0 0 Z " fill="#E88121" transform="translate(224,214)"/>
<path d="M0 0 C1.75163456 3.77222089 2.22490027 6.666639 2.125 10.8125 C2.10695313 11.78832031 2.08890625 12.76414063 2.0703125 13.76953125 C2.03550781 14.87361328 2.03550781 14.87361328 2 16 C0.32889958 13.03821227 -0.32682752 10.62928808 -0.625 7.25 C-0.69976562 6.45078125 -0.77453125 5.6515625 -0.8515625 4.828125 C-0.90054687 4.22484375 -0.94953125 3.6215625 -1 3 C-3.31 2.67 -5.62 2.34 -8 2 C-8.33 14.21 -8.66 26.42 -9 39 C-6.03 39 -3.06 39 0 39 C0.33 33.72 0.66 28.44 1 23 C1.33 23 1.66 23 2 23 C2.054348 25.0622048 2.09294961 27.12482816 2.125 29.1875 C2.14820313 30.33605469 2.17140625 31.48460937 2.1953125 32.66796875 C2.00484152 35.91740372 1.39360127 38.08660521 0 41 C-3.3 40.67 -6.6 40.34 -10 40 C-10 27.13 -10 14.26 -10 1 C-6.78548731 -0.60725635 -3.56387464 -0.05748185 0 0 Z " fill="#9C6229" transform="translate(351,204)"/>
<path d="M0 0 C1.80162669 2.52227736 2.04839136 3.64513 1.625 6.75 C1.315625 7.86375 1.315625 7.86375 1 9 C-4.77184004 11.1695569 -10.75059352 13.26352919 -17 13 C-17.99 12.34 -18.98 11.68 -20 11 C-19.01257813 10.86722656 -18.02515625 10.73445312 -17.0078125 10.59765625 C-15.72648438 10.42105469 -14.44515625 10.24445313 -13.125 10.0625 C-11.84882813 9.88847656 -10.57265625 9.71445313 -9.2578125 9.53515625 C-6.12440546 9.18566773 -6.12440546 9.18566773 -4 8 C-4.66 6.68 -5.32 5.36 -6 4 C-6.69867188 4.02320313 -7.39734375 4.04640625 -8.1171875 4.0703125 C-9.02726563 4.08835938 -9.93734375 4.10640625 -10.875 4.125 C-12.23238281 4.15980469 -12.23238281 4.15980469 -13.6171875 4.1953125 C-16 4 -16 4 -18 2 C-17.25234375 1.95101562 -16.5046875 1.90203125 -15.734375 1.8515625 C-14.74953125 1.77679688 -13.7646875 1.70203125 -12.75 1.625 C-11.28820312 1.52058594 -11.28820312 1.52058594 -9.796875 1.4140625 C-7.01876116 1.15371419 -7.01876116 1.15371419 -4.828125 -0.1015625 C-3 -1 -3 -1 0 0 Z " fill="#DA7526" transform="translate(236,233)"/>
<path d="M0 0 C0.99 0 1.98 0 3 0 C4.37868281 1.62935241 5.71274093 3.29749607 7 5 C7.66 5.33 8.32 5.66 9 6 C9.66 4.68 10.32 3.36 11 2 C11.66 2 12.32 2 13 2 C13 1.34 13 0.68 13 0 C14.9375 0.375 14.9375 0.375 17 1 C17.33 1.66 17.66 2.32 18 3 C16.02 3 14.04 3 12 3 C11.67 4.32 11.34 5.64 11 7 C8.69 7.66 6.38 8.32 4 9 C3.87625 8.360625 3.7525 7.72125 3.625 7.0625 C3.41875 6.381875 3.2125 5.70125 3 5 C2.34 4.67 1.68 4.34 1 4 C0.67 4.99 0.34 5.98 0 7 C-1.65204456 7.70211894 -3.31923769 8.36971413 -5 9 C-5.33 9.66 -5.66 10.32 -6 11 C-6.66 11 -7.32 11 -8 11 C-8 12.32 -8 13.64 -8 15 C-9.32 14.67 -10.64 14.34 -12 14 C-10.43873668 10.16780823 -7.97133075 7.82638778 -5 5 C-4.1646875 4.1028125 -4.1646875 4.1028125 -3.3125 3.1875 C-2 2 -2 2 0 2 C0 1.34 0 0.68 0 0 Z " fill="#D07829" transform="translate(100,197)"/>
<path d="M0 0 C0.8146875 0.00257813 1.629375 0.00515625 2.46875 0.0078125 C3.2834375 0.00523437 4.098125 0.00265625 4.9375 0 C6.96875 0.1328125 6.96875 0.1328125 7.96875 1.1328125 C8.00938832 2.79898365 8.011471 4.46669345 7.96875 6.1328125 C7.30875 5.1428125 6.64875 4.1528125 5.96875 3.1328125 C4.00513136 2.55532447 4.00513136 2.55532447 1.84375 2.4453125 C0.565 2.3421875 -0.71375 2.2390625 -2.03125 2.1328125 C-2.02339478 3.04776489 -2.02339478 3.04776489 -2.01538086 3.98120117 C-1.99451665 6.76089435 -1.98155987 9.54057101 -1.96875 12.3203125 C-1.96037109 13.28001953 -1.95199219 14.23972656 -1.94335938 15.22851562 C-1.93852539 16.62553711 -1.93852539 16.62553711 -1.93359375 18.05078125 C-1.92573853 19.33118286 -1.92573853 19.33118286 -1.91772461 20.63745117 C-2.03545677 23.22527997 -2.46017956 25.60943203 -3.03125 28.1328125 C-4.02125 28.1328125 -5.01125 28.1328125 -6.03125 28.1328125 C-6.03125 29.1228125 -6.03125 30.1128125 -6.03125 31.1328125 C-9.34195838 32.13390765 -12.33209769 32.23637384 -15.78125 32.1953125 C-16.76609375 32.18628906 -17.7509375 32.17726562 -18.765625 32.16796875 C-19.51328125 32.15636719 -20.2609375 32.14476562 -21.03125 32.1328125 C-20.70125 30.8128125 -20.37125 29.4928125 -20.03125 28.1328125 C-19.70125 28.4628125 -19.37125 28.7928125 -19.03125 29.1328125 C-14.79331697 29.6571815 -11.21116662 29.91942358 -7.59375 27.5078125 C-3.93185742 21.94173578 -3.68084881 16.2712202 -3.46875 9.8203125 C-3.11480901 0.20366059 -3.11480901 0.20366059 0 0 Z " fill="#CC7521" transform="translate(329.03125,203.8671875)"/>
<path d="M0 0 C0.99 0.33 1.98 0.66 3 1 C3.33 1.99 3.66 2.98 4 4 C4 3.01 4 2.02 4 1 C5.65 1 7.3 1 9 1 C9 3.31 9 5.62 9 8 C8.02417969 8.17015625 7.04835938 8.3403125 6.04296875 8.515625 C4.13451172 8.87914062 4.13451172 8.87914062 2.1875 9.25 C0.29064453 9.59804687 0.29064453 9.59804687 -1.64453125 9.953125 C-5.20828046 11.06498156 -6.22209921 11.80110043 -8 15 C-8.66 13.02 -9.32 11.04 -10 9 C-9.01 8.67 -8.02 8.34 -7 8 C-6.34 7.67 -5.68 7.34 -5 7 C-4.01 7.33 -3.02 7.66 -2 8 C-1.855625 7.236875 -1.71125 6.47375 -1.5625 5.6875 C-1 3 -1 3 0 0 Z " fill="#F8841E" transform="translate(258,205)"/>
<path d="M0 0 C0.66 0.33 1.32 0.66 2 1 C1.44876422 6.3745489 -0.08265651 11.43205426 -3 16 C-5.75 17.0625 -5.75 17.0625 -8 17 C-7.49396008 14.83125748 -7.00016187 13.00032373 -6 11 C-6.66 10.67 -7.32 10.34 -8 10 C-8.33 9.34 -8.66 8.68 -9 8 C-6.09399739 6.74335022 -4.20395416 6 -1 6 C-1 4.68 -1 3.36 -1 2 C-3.64 2.33 -6.28 2.66 -9 3 C-9 2.34 -9 1.68 -9 1 C-6.01405576 -0.49297212 -3.29146376 -0.11755228 0 0 Z " fill="#E67E20" transform="translate(478,204)"/>
<path d="M0 0 C6.44630917 0.99173987 10.68217752 5.46279062 14.703125 10.21875 C16.89977154 13.23583079 18 15.22126523 18 19 C17.34 19 16.68 19 16 19 C15.67 19.99 15.34 20.98 15 22 C14.7525 21.13375 14.505 20.2675 14.25 19.375 C11.53981755 12.0575074 7.26258249 8.28652491 1 4 C1.33 3.01 1.66 2.02 2 1 C1.34 0.67 0.68 0.34 0 0 Z " fill="#985F28" transform="translate(114,188)"/>
<path d="M0 0 C0 0.99 0 1.98 0 3 C0.66 3 1.32 3 2 3 C2.33 2.34 2.66 1.68 3 1 C3 2.65 3 4.3 3 6 C3.99 6.33 4.98 6.66 6 7 C6 7.99 6 8.98 6 10 C6.99 10.33 7.98 10.66 9 11 C7.375 11.75 7.375 11.75 5 12 C1.75 10.25 1.75 10.25 -1 8 C-1 7.01 -1 6.02 -1 5 C-6.94 4.01 -6.94 4.01 -13 3 C-13 2.67 -13 2.34 -13 2 C-8.46298506 0.54815522 -4.81938524 -0.23509196 0 0 Z M6 6 C8 7 8 7 8 7 Z " fill="#D87830" transform="translate(417,233)"/>
<path d="M0 0 C1 1 1 1 1.0625 4.0625 C1.041875 5.031875 1.02125 6.00125 1 7 C-1.64 7.33 -4.28 7.66 -7 8 C-7 8.66 -7 9.32 -7 10 C-7.99 9.67 -8.98 9.34 -10 9 C-9.6875 5.625 -9.6875 5.625 -9 2 C-5.55892734 -0.29404844 -4.03160191 -0.26293056 0 0 Z " fill="#FC841A" transform="translate(294,206)"/>
<path d="M0 0 C3.63 0 7.26 0 11 0 C11 0.99 11 1.98 11 3 C6.25 4.125 6.25 4.125 4 3 C4.020625 3.804375 4.04125 4.60875 4.0625 5.4375 C4 8 4 8 3 9 C2.84213692 10.85174706 2.74892644 12.7090911 2.68359375 14.56640625 C2.64169922 15.69111328 2.59980469 16.81582031 2.55664062 17.97460938 C2.51732422 19.15861328 2.47800781 20.34261719 2.4375 21.5625 C2.39431641 22.75037109 2.35113281 23.93824219 2.30664062 25.16210938 C2.20016454 28.10794784 2.09815159 31.0538743 2 34 C1.67 34 1.34 34 1 34 C1.00523682 33.1121582 1.01047363 32.22431641 1.01586914 31.30957031 C1.03293868 28.00715482 1.04546363 24.70478641 1.05493164 21.40234375 C1.05995206 19.97460184 1.06676972 18.54686504 1.07543945 17.11914062 C1.08760553 15.06378921 1.09325128 13.00850593 1.09765625 10.953125 C1.10289307 9.71723633 1.10812988 8.48134766 1.11352539 7.20800781 C1.10545425 3.83227442 1.10545425 3.83227442 0 0 Z " fill="#D87D2D" transform="translate(296,204)"/>
<path d="M0 0 C0.66 0 1.32 0 2 0 C2 1.65 2 3.3 2 5 C2.515625 4.67 3.03125 4.34 3.5625 4 C6.78026512 2.67989123 9.5570528 2.86757895 13 3 C12.67 3.99 12.34 4.98 12 6 C11.34 6 10.68 6 10 6 C10 6.99 10 7.98 10 9 C8.02 9 6.04 9 4 9 C4 9.99 4 10.98 4 12 C3.01 12 2.02 12 1 12 C0.67 8.04 0.34 4.08 0 0 Z " fill="#EF8528" transform="translate(209,218)"/>
<path d="M0 0 C4.75 0.875 4.75 0.875 7 2 C6.67 4.64 6.34 7.28 6 10 C3.66705225 10.04241723 1.33297433 10.04092937 -1 10 C-2 9 -2 9 -2.0625 5.4375 C-2.041875 4.303125 -2.02125 3.16875 -2 2 C-1.34 2 -0.68 2 0 2 C0 1.34 0 0.68 0 0 Z " fill="#F88621" transform="translate(344,185)"/>
<path d="M0 0 C2.26026647 2.40750669 2.97414174 3.68564065 3.2487793 7.02441406 C3.19117432 8.17651367 3.13356934 9.32861328 3.07421875 10.515625 C2.99204102 12.39121094 2.99204102 12.39121094 2.90820312 14.3046875 C2.83537109 15.60664063 2.76253906 16.90859375 2.6875 18.25 C2.62626953 19.56742188 2.56503906 20.88484375 2.50195312 22.2421875 C2.34870587 25.4957446 2.18084932 28.74787942 2 32 C1.67 32 1.34 32 1 32 C1 25.07 1 18.14 1 11 C-5.98470361 12.43357734 -5.98470361 12.43357734 -11 16 C-11 14.35 -11 12.7 -11 11 C-10.01 11.33 -9.02 11.66 -8 12 C-8 11.34 -8 10.68 -8 10 C-5.36 9.67 -2.72 9.34 0 9 C-0.44703986 4.52116304 -0.44703986 4.52116304 -3 1 C-2.01 0.67 -1.02 0.34 0 0 Z " fill="#A85B19" transform="translate(295,204)"/>
<path d="M0 0 C1.23556641 0.01740234 1.23556641 0.01740234 2.49609375 0.03515625 C3.32238281 0.04417969 4.14867187 0.05320313 5 0.0625 C5.63808594 0.07410156 6.27617187 0.08570313 6.93359375 0.09765625 C6.93359375 0.42765625 6.93359375 0.75765625 6.93359375 1.09765625 C4.29359375 1.42765625 1.65359375 1.75765625 -1.06640625 2.09765625 C-1.06640625 14.30765625 -1.06640625 26.51765625 -1.06640625 39.09765625 C0.58359375 39.09765625 2.23359375 39.09765625 3.93359375 39.09765625 C4.26359375 39.75765625 4.59359375 40.41765625 4.93359375 41.09765625 C0.97359375 40.60265625 0.97359375 40.60265625 -3.06640625 40.09765625 C-3.06640625 39.43765625 -3.06640625 38.77765625 -3.06640625 38.09765625 C-4.55140625 38.59265625 -4.55140625 38.59265625 -6.06640625 39.09765625 C-6.06640625 36.78765625 -6.06640625 34.47765625 -6.06640625 32.09765625 C-5.60234375 33.05671875 -5.60234375 33.05671875 -5.12890625 34.03515625 C-4.23188995 36.03376446 -4.23188995 36.03376446 -3.06640625 37.09765625 C-3.07164307 36.01234619 -3.07687988 34.92703613 -3.08227539 33.80883789 C-3.10032461 29.79647643 -3.11183796 25.78411858 -3.12133789 21.77172852 C-3.12637829 20.03246457 -3.13321055 18.29320489 -3.1418457 16.55395508 C-3.15392417 14.05939688 -3.15963733 11.56489452 -3.1640625 9.0703125 C-3.16922379 8.28801773 -3.17438507 7.50572296 -3.17970276 6.69972229 C-3.17989851 4.83198511 -3.12840319 2.96436421 -3.06640625 1.09765625 C-2.06640625 0.09765625 -2.06640625 0.09765625 0 0 Z " fill="#AD6A2E" transform="translate(274.06640625,203.90234375)"/>
<path d="M0 0 C0.66 0 1.32 0 2 0 C2.66 1.98 3.32 3.96 4 6 C7.465 5.505 7.465 5.505 11 5 C11.33 6.65 11.66 8.3 12 10 C7.70700357 11.26264601 5.12168689 10.62950412 1 9 C1 7.68 1 6.36 1 5 C0.34 5 -0.32 5 -1 5 C-0.67 3.35 -0.34 1.7 0 0 Z " fill="#F5841F" transform="translate(386,232)"/>
<path d="M0 0 C3.96 0 7.92 0 12 0 C16 8.75 16 8.75 16 11 C15.01 11 14.02 11 13 11 C12.67 8.36 12.34 5.72 12 3 C8.7 2.67 5.4 2.34 2 2 C2.433125 2.99580078 2.433125 2.99580078 2.875 4.01171875 C3.431875 5.33623047 3.431875 5.33623047 4 6.6875 C4.37125 7.55761719 4.7425 8.42773438 5.125 9.32421875 C6.01870488 12.0572002 6.16449676 14.14700934 6 17 C2.31547868 11.47321802 0.67268135 6.59227724 0 0 Z " fill="#B86F2E" transform="translate(440,204)"/>
<path d="M0 0 C0.66 0 1.32 0 2 0 C1.85856168 2.7294586 1.71200471 5.45848123 1.5625 8.1875 C1.50352539 9.34088867 1.50352539 9.34088867 1.44335938 10.51757812 C1.22492966 14.43251075 0.91307892 18.17120688 0 22 C-0.33 21.01 -0.66 20.02 -1 19 C-1.66 19 -2.32 19 -3 19 C-3.35368021 11.87399867 -2.95671348 6.52940894 0 0 Z " fill="#BD762F" transform="translate(81,201)"/>
<path d="M0 0 C1.23556641 0.01740234 1.23556641 0.01740234 2.49609375 0.03515625 C3.32238281 0.04417969 4.14867187 0.05320313 5 0.0625 C5.63808594 0.07410156 6.27617187 0.08570313 6.93359375 0.09765625 C6.60359375 1.74765625 6.27359375 3.39765625 5.93359375 5.09765625 C4.94359375 4.76765625 3.95359375 4.43765625 2.93359375 4.09765625 C2.93359375 3.43765625 2.93359375 2.77765625 2.93359375 2.09765625 C1.28359375 2.09765625 -0.36640625 2.09765625 -2.06640625 2.09765625 C-2.06640625 12.98765625 -2.06640625 23.87765625 -2.06640625 35.09765625 C-2.39640625 35.09765625 -2.72640625 35.09765625 -3.06640625 35.09765625 C-3.09105815 30.27384823 -3.10924318 25.45007658 -3.12133789 20.6262207 C-3.12637799 18.98396161 -3.13321003 17.34170702 -3.1418457 15.69946289 C-3.15392551 13.34390146 -3.15963764 10.98839916 -3.1640625 8.6328125 C-3.16922379 7.89426529 -3.17438507 7.15571808 -3.17970276 6.39479065 C-3.17989875 4.62867537 -3.12835344 2.86268479 -3.06640625 1.09765625 C-2.06640625 0.09765625 -2.06640625 0.09765625 0 0 Z " fill="#EB882E" transform="translate(275.06640625,204.90234375)"/>
<path d="M0 0 C0.33 0 0.66 0 1 0 C1.06058594 0.94101563 1.12117188 1.88203125 1.18359375 2.8515625 C1.26738281 4.09679687 1.35117187 5.34203125 1.4375 6.625 C1.51871094 7.85476562 1.59992188 9.08453125 1.68359375 10.3515625 C1.96663944 13.61532388 2.41038953 16.77943859 3 20 C4.98 20 6.96 20 9 20 C9 17.36 9 14.72 9 12 C11.29633824 15.44450737 11.54016485 17.93812283 12 22 C10.18757948 22.02687279 8.37504767 22.04633715 6.5625 22.0625 C5.55316406 22.07410156 4.54382813 22.08570313 3.50390625 22.09765625 C1 22 1 22 0 21 C-0.08685603 19.43827255 -0.10702219 17.87270656 -0.09765625 16.30859375 C-0.09443359 15.36435547 -0.09121094 14.42011719 -0.08789062 13.44726562 C-0.07951172 12.45404297 -0.07113281 11.46082031 -0.0625 10.4375 C-0.05798828 9.44041016 -0.05347656 8.44332031 -0.04882812 7.41601562 C-0.03700007 4.94395151 -0.02051849 2.47200482 0 0 Z " fill="#B26623" transform="translate(360,222)"/>
<path d="M0 0 C6.5470059 2.39217523 9.24054304 4.92095032 12.75 11.0625 C14 14 14 14 14 18 C12.02 18.66 10.04 19.32 8 20 C8.33 19.34 8.66 18.68 9 18 C9.50752766 12.50541664 9.50752766 12.50541664 7.5 7.625 C7.005 7.08875 6.51 6.5525 6 6 C6 5.34 6 4.68 6 4 C4.02 3.34 2.04 2.68 0 2 C0 1.34 0 0.68 0 0 Z " fill="#C0712F" transform="translate(225,203)"/>
<path d="M0 0 C0.66 0.33 1.32 0.66 2 1 C1.83628906 1.53109375 1.67257812 2.0621875 1.50390625 2.609375 C0.88643623 5.53876764 0.90498075 8.25822936 0.9375 11.25 C0.94652344 12.32765625 0.95554687 13.4053125 0.96484375 14.515625 C0.97644531 15.33546875 0.98804688 16.1553125 1 17 C1.66 17 2.32 17 3 17 C3.33 18.32 3.66 19.64 4 21 C3.34 20.67 2.68 20.34 2 20 C2 19.34 2 18.68 2 18 C1.01 17.67 0.02 17.34 -1 17 C-1.66666667 14.66666667 -2.33333333 12.33333333 -3 10 C-3.99 9.67 -4.98 9.34 -6 9 C-6.33 7.02 -6.66 5.04 -7 3 C-5.515 3.99 -5.515 3.99 -4 5 C-4 6.32 -4 7.64 -4 9 C-3.34 9 -2.68 9 -2 9 C-1.855625 7.88625 -1.71125 6.7725 -1.5625 5.625 C-1 2 -1 2 0 0 Z " fill="#B16E29" transform="translate(421,206)"/>
<path d="M0 0 C1.32 0.33 2.64 0.66 4 1 C4 1.66 4 2.32 4 3 C4.99 3.33 5.98 3.66 7 4 C7 4.66 7 5.32 7 6 C8.32 6.66 9.64 7.32 11 8 C11 8.66 11 9.32 11 10 C8.6875 10.625 8.6875 10.625 6 11 C3 9 3 9 2 6 C1.34 5.67 0.68 5.34 0 5 C0 3.35 0 1.7 0 0 Z " fill="#F6841D" transform="translate(420,234)"/>
<path d="M0 0 C1.875 0.5625 1.875 0.5625 4 2 C4.69356423 4.32548007 5.36149212 6.65880445 6 9 C6.99 9.33 7.98 9.66 9 10 C10.1875 13.5625 10.1875 13.5625 11 17 C6.25850525 14.69698826 3.41643876 11.61662036 1 7 C0.36037456 4.59556862 0.15316515 2.50169743 0 0 Z " fill="#976127" transform="translate(79,220)"/>
<path d="M0 0 C0.66 0 1.32 0 2 0 C2.103125 0.639375 2.20625 1.27875 2.3125 1.9375 C2.539375 2.618125 2.76625 3.29875 3 4 C3.99 4.33 4.98 4.66 6 5 C6.33 4.34 6.66 3.68 7 3 C7.144375 3.763125 7.28875 4.52625 7.4375 5.3125 C7.9632594 8.08172908 7.9632594 8.08172908 9 11 C11.50447516 12.21869929 11.50447516 12.21869929 14 13 C14 13.66 14 14.32 14 15 C10.12697862 13.85569823 6.99736561 12.76679902 4 10 C4 9.34 4 8.68 4 8 C3.34 8 2.68 8 2 8 C0.3125 5.6875 0.3125 5.6875 -1 3 C-0.67 2.01 -0.34 1.02 0 0 Z " fill="#D67828" transform="translate(201,230)"/>
<path d="M0 0 C2.10388569 -0.05402274 4.20816714 -0.09280256 6.3125 -0.125 C8.07013672 -0.15980469 8.07013672 -0.15980469 9.86328125 -0.1953125 C13 0 13 0 16 2 C16 2.66 16 3.32 16 4 C10.39 3.67 4.78 3.34 -1 3 C-0.67 2.01 -0.34 1.02 0 0 Z " fill="#BA7830" transform="translate(100,187)"/>
<path d="M0 0 C0 0.66 0 1.32 0 2 C-0.66 2 -1.32 2 -2 2 C-2 2.66 -2 3.32 -2 4 C-3.32 4 -4.64 4 -6 4 C-6 5.65 -6 7.3 -6 9 C-7.65 8.67 -9.3 8.34 -11 8 C-11 9.32 -11 10.64 -11 12 C-11.66 12 -12.32 12 -13 12 C-13.33 12.66 -13.66 13.32 -14 14 C-14.33 13.01 -14.66 12.02 -15 11 C-11.7554591 5.8584911 -6.50781798 0 0 0 Z " fill="#C57427" transform="translate(254,203)"/>
<path d="M0 0 C0.99 0.33 1.98 0.66 3 1 C2.67 4.63 2.34 8.26 2 12 C0.35 11.67 -1.3 11.34 -3 11 C-3 13.64 -3 16.28 -3 19 C-2.34 19.33 -1.68 19.66 -1 20 C-2.32 20 -3.64 20 -5 20 C-5 17.03 -5 14.06 -5 11 C-3.35 10.34 -1.7 9.68 0 9 C0 6.03 0 3.06 0 0 Z " fill="#CC7529" transform="translate(360,194)"/>
<path d="M0 0 C1.32 1.32 2.64 2.64 4 4 C2.02 6.64 0.04 9.28 -2 12 C-1.34 12 -0.68 12 0 12 C-0.33 12.66 -0.66 13.32 -1 14 C-1.99 14 -2.98 14 -4 14 C-4.29296875 7.9453125 -4.29296875 7.9453125 -4 6 C-3.01 5.34 -2.02 4.68 -1 4 C-0.27617533 1.94074861 -0.27617533 1.94074861 0 0 Z " fill="#BA7124" transform="translate(124,206)"/>
<path d="M0 0 C0.98484375 0.01804688 1.9696875 0.03609375 2.984375 0.0546875 C4.10585937 0.08949219 4.10585937 0.08949219 5.25 0.125 C5.25 0.785 5.25 1.445 5.25 2.125 C4.62351563 2.17398438 3.99703125 2.22296875 3.3515625 2.2734375 C2.53429687 2.34820312 1.71703125 2.42296875 0.875 2.5 C0.06289062 2.56960937 -0.74921875 2.63921875 -1.5859375 2.7109375 C-3.95334191 2.95392588 -3.95334191 2.95392588 -5.75 5.125 C-5.75 6.115 -5.75 7.105 -5.75 8.125 C-7.07 8.125 -8.39 8.125 -9.75 8.125 C-9.75 6.145 -9.75 4.165 -9.75 2.125 C-6.40060119 0.09941119 -3.88037449 -0.09238987 0 0 Z " fill="#E1822F" transform="translate(219.75,202.875)"/>
<path d="M0 0 C1.64574566 -0.02688151 3.29161413 -0.04634123 4.9375 -0.0625 C5.85402344 -0.07410156 6.77054687 -0.08570313 7.71484375 -0.09765625 C10 0 10 0 11 1 C11.07319621 3.69654854 11.09242537 6.36691458 11.0625 9.0625 C11.05798828 9.82111328 11.05347656 10.57972656 11.04882812 11.36132812 C11.0370068 13.24091871 11.01907078 15.12046899 11 17 C10.67 17 10.34 17 10 17 C10 14.36 10 11.72 10 9 C9.34 9 8.68 9 8 9 C8 7.02 8 5.04 8 3 C5.03 2.67 2.06 2.34 -1 2 C-0.67 1.34 -0.34 0.68 0 0 Z " fill="#C1742E" transform="translate(361,187)"/>
<path d="M0 0 C0.8146875 0.00257813 1.629375 0.00515625 2.46875 0.0078125 C3.2834375 0.00523437 4.098125 0.00265625 4.9375 0 C6.96875 0.1328125 6.96875 0.1328125 7.96875 1.1328125 C8.00938832 2.79898365 8.011471 4.46669345 7.96875 6.1328125 C7.30875 5.1428125 6.64875 4.1528125 5.96875 3.1328125 C3.32875 2.8028125 0.68875 2.4728125 -2.03125 2.1328125 C-2.03125 9.0628125 -2.03125 15.9928125 -2.03125 23.1328125 C-2.36125 23.1328125 -2.69125 23.1328125 -3.03125 23.1328125 C-3.06012512 19.48699563 -3.07800585 15.84120787 -3.09375 12.1953125 C-3.10212891 11.15439453 -3.11050781 10.11347656 -3.11914062 9.04101562 C-3.12397461 7.55698242 -3.12397461 7.55698242 -3.12890625 6.04296875 C-3.13414307 5.12652588 -3.13937988 4.21008301 -3.14477539 3.26586914 C-2.99461694 0.44450481 -2.81728032 0.18420679 0 0 Z " fill="#DA853C" transform="translate(329.03125,203.8671875)"/>
<path d="M0 0 C0.99 0.66 1.98 1.32 3 2 C2.01 2.33 1.02 2.66 0 3 C0.33 4.98 0.66 6.96 1 9 C1.99 8.67 2.98 8.34 4 8 C4.12375 8.804375 4.2475 9.60875 4.375 10.4375 C4.58125 11.283125 4.7875 12.12875 5 13 C5.66 13.33 6.32 13.66 7 14 C4 14 4 14 1.95703125 12.25 C1.24933594 11.5075 0.54164062 10.765 -0.1875 10 C-0.90292969 9.2575 -1.61835937 8.515 -2.35546875 7.75 C-2.89816406 7.1725 -3.44085938 6.595 -4 6 C-3.67 5.01 -3.34 4.02 -3 3 C-2.34 3 -1.68 3 -1 3 C-0.67 2.01 -0.34 1.02 0 0 Z " fill="#B16524" transform="translate(92,218)"/>
<path d="M0 0 C1.9375 0.3125 1.9375 0.3125 4 1 C5.09658936 4.28976808 4.79953138 5.71303767 4 9 C5.65 9 7.3 9 9 9 C6.35261084 10.4606285 5.10551666 11 2 11 C2 9.35 2 7.7 2 6 C1.34 6 0.68 6 0 6 C-0.66 6.66 -1.32 7.32 -2 8 C-4.625 7.625 -4.625 7.625 -7 7 C-4.23776722 4.23776722 -1.79293383 4.42143709 2 4 C1.34 2.68 0.68 1.36 0 0 Z " fill="#C27027" transform="translate(224,214)"/>
<path d="M0 0 C2.31 0 4.62 0 7 0 C7.33 0.99 7.66 1.98 8 3 C6.9275 2.9175 5.855 2.835 4.75 2.75 C0.99751925 2.65990847 0.99751925 2.65990847 -1.4375 4.8125 C-3.2906191 6.95882896 -3.2906191 6.95882896 -3 10 C-2.34 10.33 -1.68 10.66 -1 11 C-2.32 11.33 -3.64 11.66 -5 12 C-5.05399736 10.54207116 -5.09279177 9.08357288 -5.125 7.625 C-5.15980469 6.40683594 -5.15980469 6.40683594 -5.1953125 5.1640625 C-5 3 -5 3 -3 1 C-2.01 1.33 -1.02 1.66 0 2 C0 1.34 0 0.68 0 0 Z " fill="#AF6422" transform="translate(216,211)"/>
<path d="M0 0 C0.2475 0.61875 0.495 1.2375 0.75 1.875 C2.20628639 4.35068687 3.37812506 4.95125002 6 6 C6 6.66 6 7.32 6 8 C6.928125 8.433125 6.928125 8.433125 7.875 8.875 C10 10 10 10 12 12 C12.1953125 14.1640625 12.1953125 14.1640625 12.125 16.625 C12.10695313 17.44226563 12.08890625 18.25953125 12.0703125 19.1015625 C12.03550781 20.04128906 12.03550781 20.04128906 12 21 C11.67 21 11.34 21 11 21 C10.67 18.03 10.34 15.06 10 12 C9.34 12 8.68 12 8 12 C8 11.34 8 10.68 8 10 C4.06045047 8.63420132 4.06045047 8.63420132 0 8 C0 5.36 0 2.72 0 0 Z " fill="#C57532" transform="translate(429,213)"/>
<path d="M0 0 C3.63 0 7.26 0 11 0 C11.33 1.98 11.66 3.96 12 6 C10.5 4.625 10.5 4.625 9 3 C9 2.34 9 1.68 9 1 C6.36 1 3.72 1 1 1 C1 7.27 1 13.54 1 20 C-0.32 19.67 -1.64 19.34 -3 19 C-2.01 19 -1.02 19 0 19 C0 12.73 0 6.46 0 0 Z " fill="#A96D36" transform="translate(166,224)"/>
<path d="M0 0 C0.66 0 1.32 0 2 0 C1.79375 0.5775 1.5875 1.155 1.375 1.75 C0.91338739 4.51967567 1.57055055 5.64561267 3 8 C2 9 2 9 -0.5625 9.0625 C-1.366875 9.041875 -2.17125 9.02125 -3 9 C-3 8.34 -3 7.68 -3 7 C-4.32 6.34 -5.64 5.68 -7 5 C-4 3 -4 3 -2 3 C-1.34 2.01 -0.68 1.02 0 0 Z " fill="#DB7A25" transform="translate(118,229)"/>
<path d="M0 0 C1.13308594 -0.01417969 2.26617187 -0.02835938 3.43359375 -0.04296875 C6.41707979 0.17678865 8.05545423 0.62906614 10.5625 2.1875 C10.5625 2.5175 10.5625 2.8475 10.5625 3.1875 C3.6325 3.1875 -3.2975 3.1875 -10.4375 3.1875 C-8.43175164 -0.82399672 -3.96904707 0.02252581 0 0 Z " fill="#C27430" transform="translate(400.4375,202.8125)"/>
<path d="M0 0 C0.33 0 0.66 0 1 0 C1 1.65 1 3.3 1 5 C1.99 5.33 2.98 5.66 4 6 C4 6.99 4 7.98 4 9 C4.99 9.33 5.98 9.66 7 10 C5.3125 10.75 5.3125 10.75 3 11 C0.25 9.375 0.25 9.375 -2 7 C-2.3125 4.25 -2.3125 4.25 -2 2 C-1.34 2 -0.68 2 0 2 C0 1.34 0 0.68 0 0 Z M4 5 C6 6 6 6 6 6 Z " fill="#CE792A" transform="translate(419,234)"/>
<path d="M0 0 C0.99 0.33 1.98 0.66 3 1 C2.67 1.66 2.34 2.32 2 3 C3.32 3.33 4.64 3.66 6 4 C4.37604003 4.50336767 2.75079459 5.00258976 1.125 5.5 C0.22007813 5.7784375 -0.68484375 6.056875 -1.6171875 6.34375 C-4 7 -4 7 -6 7 C-6 6.01 -6 5.02 -6 4 C-6.99 3.67 -7.98 3.34 -9 3 C-5.92382812 2.70703125 -5.92382812 2.70703125 -2.84765625 2.4140625 C-2.23792969 2.27742187 -1.62820312 2.14078125 -1 2 C-0.67 1.34 -0.34 0.68 0 0 Z " fill="#AC6926" transform="translate(113,235)"/>
<path d="M0 0 C2.97 0.495 2.97 0.495 6 1 C5.67 2.32 5.34 3.64 5 5 C3.68 5 2.36 5 1 5 C0.505 5.515625 0.01 6.03125 -0.5 6.5625 C-0.995 7.036875 -1.49 7.51125 -2 8 C-4.125 7.8125 -4.125 7.8125 -6 7 C-6.33 6.34 -6.66 5.68 -7 5 C-5.35 5 -3.7 5 -2 5 C-2 4.01 -2 3.02 -2 2 C-1.34 2 -0.68 2 0 2 C0 1.34 0 0.68 0 0 Z " fill="#BF7325" transform="translate(105,228)"/>
<path d="M0 0 C0 0.66 0 1.32 0 2 C-5.77184004 4.1695569 -11.75059352 6.26352919 -18 6 C-18.99 5.34 -19.98 4.68 -21 4 C-20.04738281 3.87882813 -19.09476563 3.75765625 -18.11328125 3.6328125 C-16.85902344 3.46523437 -15.60476562 3.29765625 -14.3125 3.125 C-13.07113281 2.96257812 -11.82976562 2.80015625 -10.55078125 2.6328125 C-6.97045681 1.99473488 -3.56889068 0 0 0 Z " fill="#B0692D" transform="translate(237,240)"/>
<path d="M0 0 C1.9375 1.125 1.9375 1.125 3 3 C3.375 6.0625 3.375 6.0625 3 9 C2.01 9.66 1.02 10.32 0 11 C0 8.03 0 5.06 0 2 C-1.32 2.33 -2.64 2.66 -4 3 C-4 2.34 -4 1.68 -4 1 C-4.66 1 -5.32 1 -6 1 C-6.33 1.66 -6.66 2.32 -7 3 C-7.66 2.34 -8.32 1.68 -9 1 C-5.95016004 -0.52491998 -3.3576631 -0.23562548 0 0 Z " fill="#C4752C" transform="translate(490,232)"/>
<path d="M0 0 C1.125 3.75 1.125 3.75 0 6 C1.32 5.67 2.64 5.34 4 5 C4 5.99 4 6.98 4 8 C2.375 8.6875 2.375 8.6875 0 9 C-3.25 7.5625 -3.25 7.5625 -6 6 C-5.34 5.67 -4.68 5.34 -4 5 C-3.67 4.34 -3.34 3.68 -3 3 C-2.34 3.33 -1.68 3.66 -1 4 C-0.67 2.68 -0.34 1.36 0 0 Z " fill="#DC7C24" transform="translate(392,216)"/>
<path d="M0 0 C0.99 0 1.98 0 3 0 C3 3.96 3 7.92 3 12 C2.34 12 1.68 12 1 12 C0.67 12.66 0.34 13.32 0 14 C0 9.38 0 4.76 0 0 Z " fill="#BC6F2F" transform="translate(130,207)"/>
<path d="M0 0 C0.33 1.32 0.66 2.64 1 4 C0.278125 3.7525 -0.44375 3.505 -1.1875 3.25 C-4.1794348 2.68262931 -4.1794348 2.68262931 -6.8125 4.9375 C-7.8953125 5.9584375 -7.8953125 5.9584375 -9 7 C-9 4.69 -9 2.38 -9 0 C-5.52176885 -1.15941038 -3.54104422 -0.70820884 0 0 Z " fill="#FA851E" transform="translate(490,234)"/>
<path d="M0 0 C0 1.32 0 2.64 0 4 C-0.66 4 -1.32 4 -2 4 C-2.33 4.66 -2.66 5.32 -3 6 C-3 5.34 -3 4.68 -3 4 C-4.65 4.66 -6.3 5.32 -8 6 C-8 4.35 -8 2.7 -8 1 C-5.29120665 -0.35439668 -2.99066732 -0.06501451 0 0 Z " fill="#FB841B" transform="translate(477,206)"/>
<path d="M0 0 C-0.7109375 1.921875 -0.7109375 1.921875 -2 4 C-4.1640625 4.828125 -4.1640625 4.828125 -6.625 5.25 C-7.85089844 5.47429687 -7.85089844 5.47429687 -9.1015625 5.703125 C-9.72804688 5.80109375 -10.35453125 5.8990625 -11 6 C-10.1875 3.5625 -10.1875 3.5625 -9 1 C-5.8035914 -0.06546953 -3.34252724 -0.07427838 0 0 Z " fill="#D67E28" transform="translate(433,203)"/>
<path d="M0 0 C2.64 0 5.28 0 8 0 C5.38058783 1.74627478 3.96175123 2.38722388 1 3 C2.32 4.65 3.64 6.3 5 8 C3.35 8 1.7 8 0 8 C-0.66 6.35 -1.32 4.7 -2 3 C-1.34 3 -0.68 3 0 3 C0 2.01 0 1.02 0 0 Z " fill="#AD6423" transform="translate(213,227)"/>
<path d="M0 0 C0.66 0.33 1.32 0.66 2 1 C1.625 3.9375 1.625 3.9375 1 7 C0.01 7.495 0.01 7.495 -1 8 C-1 6.02 -1 4.04 -1 2 C-3.64 2.33 -6.28 2.66 -9 3 C-9 2.34 -9 1.68 -9 1 C-6.01405576 -0.49297212 -3.29146376 -0.11755228 0 0 Z " fill="#B16C28" transform="translate(478,204)"/>
<path d="M0 0 C1.32 0.33 2.64 0.66 4 1 C4.6875 2.625 4.6875 2.625 5 5 C3.5625 8.25 3.5625 8.25 2 11 C0.35 11 -1.3 11 -3 11 C-3.33 10.34 -3.66 9.68 -4 9 C-2.02 9 -0.04 9 2 9 C2 6.36 2 3.72 2 1 C1.34 0.67 0.68 0.34 0 0 Z " fill="#B96C2B" transform="translate(265,204)"/>
<path d="M0 0 C2.31 0 4.62 0 7 0 C6.67 0.66 6.34 1.32 6 2 C5.34 2 4.68 2 4 2 C3.67 3.32 3.34 4.64 3 6 C1.68 6 0.36 6 -1 6 C-1.33 6.99 -1.66 7.98 -2 9 C-1.41196203 5.97580475 -0.77321882 2.98241547 0 0 Z " fill="#F78623" transform="translate(396,221)"/>
<path d="M0 0 C1.65 0 3.3 0 5 0 C5 2.31 5 4.62 5 7 C3.35 7 1.7 7 0 7 C0.2784375 6.1028125 0.2784375 6.1028125 0.5625 5.1875 C1.22093687 2.83591238 1.22093687 2.83591238 0 0 Z " fill="#FC8419" transform="translate(262,206)"/>
<path d="M0 0 C0.66 0 1.32 0 2 0 C2 0.66 2 1.32 2 2 C2.66 2.33 3.32 2.66 4 3 C4 4.65 4 6.3 4 8 C2.35 8 0.7 8 -1 8 C-0.67 5.36 -0.34 2.72 0 0 Z " fill="#FD8315" transform="translate(346,187)"/>
<path d="M0 0 C-1 3 -1 3 -4.3125 4.6875 C-8 6 -8 6 -12 6 C-12 5.34 -12 4.68 -12 4 C-10.68 4 -9.36 4 -8 4 C-8 3.34 -8 2.68 -8 2 C-2.25 0 -2.25 0 0 0 Z " fill="#B4742B" transform="translate(439,240)"/>
<path d="M0 0 C0.33 0.66 0.66 1.32 1 2 C1.66 2 2.32 2 3 2 C5 5 5 5 4.8125 7.875 C3.98580683 11.05458912 2.83180644 13.29211222 1 16 C0.34 15.67 -0.32 15.34 -1 15 C-0.7834375 14.38511719 -0.566875 13.77023438 -0.34375 13.13671875 C0.07390625 11.92435547 0.07390625 11.92435547 0.5 10.6875 C0.7784375 9.88699219 1.056875 9.08648437 1.34375 8.26171875 C2.13933107 5.91230578 2.13933107 5.91230578 2 3 C1.34 3 0.68 3 0 3 C0 2.01 0 1.02 0 0 Z " fill="#B26D28" transform="translate(451,233)"/>
<path d="M0 0 C2.97 0.33 5.94 0.66 9 1 C6.97472567 2.01263716 4.94667174 3.02352717 2.875 3.9375 C0.67642241 4.99740267 0.67642241 4.99740267 -1 8 C-1.66 6.02 -2.32 4.04 -3 2 C-2.01 1.67 -1.02 1.34 0 1 C0 0.67 0 0.34 0 0 Z " fill="#CE6E23" transform="translate(251,212)"/>
<path d="M0 0 C1.32 0.66 2.64 1.32 4 2 C4 2.66 4 3.32 4 4 C4.66 4 5.32 4 6 4 C6 4.66 6 5.32 6 6 C6.99 6 7.98 6 9 6 C8.67 6.66 8.34 7.32 8 8 C4.22454612 6.90931332 1.52956528 6.0916909 -1 3 C-0.67 2.01 -0.34 1.02 0 0 Z " fill="#CF7227" transform="translate(299,237)"/>
<path d="M0 0 C-0.33 0.99 -0.66 1.98 -1 3 C-1.66 3 -2.32 3 -3 3 C-3 3.99 -3 4.98 -3 6 C-4.65 6 -6.3 6 -8 6 C-7.75 4.125 -7.75 4.125 -7 2 C-4.41847698 0.27898465 -3.15081975 0 0 0 Z " fill="#FD8418" transform="translate(222,221)"/>
<path d="M0 0 C-3 2 -3 2 -6 2.9375 C-8.87001217 3.95396265 -10.11128681 4.69157276 -12 7 C-12.66 6.34 -13.32 5.68 -14 5 C-10.25 2 -10.25 2 -8 2 C-8 1.34 -8 0.68 -8 0 C-4.71023192 -1.09658936 -3.28696233 -0.79953138 0 0 Z " fill="#B16624" transform="translate(295,204)"/>
<path d="M0 0 C0.66 0.33 1.32 0.66 2 1 C1.67 1.66 1.34 2.32 1 3 C2.32 3.33 3.64 3.66 5 4 C3.56465159 4.2226746 2.12654475 4.42761906 0.6875 4.625 C-0.11300781 4.74101562 -0.91351563 4.85703125 -1.73828125 4.9765625 C-4 5 -4 5 -7 3 C-4.69631264 1.93347808 -2.35981813 0.93578995 0 0 Z " fill="#865A23" transform="translate(98,187)"/>
<path d="M0 0 C2 2 2 2 2 6 C0.02 6.66 -1.96 7.32 -4 8 C-3.40138258 5.64828869 -2.73075648 3.3140622 -2 1 C-1.34 0.67 -0.68 0.34 0 0 Z " fill="#B1581A" transform="translate(237,215)"/>
<path d="M0 0 C1.9375 0.375 1.9375 0.375 4 1 C4.33 1.66 4.66 2.32 5 3 C3.02 3 1.04 3 -1 3 C-1.33 4.32 -1.66 5.64 -2 7 C-3.32 6.67 -4.64 6.34 -6 6 C-5.34 6 -4.68 6 -4 6 C-3.34 4.68 -2.68 3.36 -2 2 C-1.34 2 -0.68 2 0 2 C0 1.34 0 0.68 0 0 Z " fill="#9F5E24" transform="translate(113,197)"/>
<path d="M0 0 C0.66 0.33 1.32 0.66 2 1 C0.625 3 0.625 3 -1 5 C-1.66 5 -2.32 5 -3 5 C-3.66 6.98 -4.32 8.96 -5 11 C-5.66 11 -6.32 11 -7 11 C-5.72278474 6.00724943 -3.82669043 3.42388092 0 0 Z " fill="#B86F2C" transform="translate(388,206)"/>
<path d="M0 0 C2.0625 0.4375 2.0625 0.4375 4 1 C3.34 2.65 2.68 4.3 2 6 C0.68 5.67 -0.64 5.34 -2 5 C-1.125 1.125 -1.125 1.125 0 0 Z " fill="#FD8417" transform="translate(400,205)"/>
<path d="M0 0 C5 6.36363636 5 6.36363636 5 11 C4.34 11 3.68 11 3 11 C0 4.5 0 4.5 0 0 Z " fill="#AF6221" transform="translate(456,216)"/>
<path d="M0 0 C1.47906892 -0.02689216 2.95827483 -0.04634621 4.4375 -0.0625 C5.26121094 -0.07410156 6.08492188 -0.08570313 6.93359375 -0.09765625 C9 0 9 0 10 1 C10.04063832 2.66617115 10.042721 4.33388095 10 6 C9.34 5.01 8.68 4.02 8 3 C5.67182036 2.63239269 3.3381615 2.29758419 1 2 C0.67 1.34 0.34 0.68 0 0 Z " fill="#AA6628" transform="translate(327,204)"/>
<path d="M0 0 C0 0.66 0 1.32 0 2 C-3.60993172 3.13480527 -6.9842327 3.10015767 -10.75 3.0625 C-11.92046875 3.05347656 -13.0909375 3.04445312 -14.296875 3.03515625 C-15.18890625 3.02355469 -16.0809375 3.01195312 -17 3 C-17 2.67 -17 2.34 -17 2 C-16.15695312 1.93941406 -15.31390625 1.87882813 -14.4453125 1.81640625 C-13.34960938 1.73261719 -12.25390625 1.64882812 -11.125 1.5625 C-10.03445313 1.48128906 -8.94390625 1.40007812 -7.8203125 1.31640625 C-4.81774102 0.97955266 -3.05142118 0 0 0 Z " fill="#DD8233" transform="translate(415,241)"/>
<path d="M0 0 C1.5 1.25 1.5 1.25 3 3 C3 4.32 3 5.64 3 7 C1.68 6.67 0.36 6.34 -1 6 C-1 2 -1 2 0 0 Z " fill="#B46723" transform="translate(197,237)"/>
<path d="M0 0 C1.98 1.65 3.96 3.3 6 5 C5.34 5.66 4.68 6.32 4 7 C1.875 6.625 1.875 6.625 0 6 C0 4.02 0 2.04 0 0 Z " fill="#C3731F" transform="translate(118,200)"/>
<path d="M0 0 C2.34290892 2.48434437 2.97982934 3.77731593 3.29296875 7.234375 C3.25816406 8.39453125 3.22335938 9.5546875 3.1875 10.75 C3.16042969 11.92046875 3.13335937 13.0909375 3.10546875 14.296875 C3.07066406 15.18890625 3.03585938 16.0809375 3 17 C2.67 17 2.34 17 2 17 C1.93941406 16.21753906 1.87882813 15.43507812 1.81640625 14.62890625 C1.73261719 13.61699219 1.64882812 12.60507813 1.5625 11.5625 C1.48128906 10.55316406 1.40007812 9.54382813 1.31640625 8.50390625 C1.26788532 6.06359221 1.26788532 6.06359221 0 5 C-0.04063832 3.33382885 -0.042721 1.66611905 0 0 Z " fill="#CE7B36" transform="translate(193,192)"/>
<path d="M0 0 C0 0.99 0 1.98 0 3 C-2.64 2.67 -5.28 2.34 -8 2 C-8 1.34 -8 0.68 -8 0 C-4.94736336 -0.98120464 -3.05263664 -0.98120464 0 0 Z " fill="#CE7F35" transform="translate(107,239)"/>
<path d="M0 0 C0.33 0 0.66 0 1 0 C1 2.97 1 5.94 1 9 C-0.65 9.33 -2.3 9.66 -4 10 C-2.68 6.7 -1.36 3.4 0 0 Z " fill="#AD6925" transform="translate(325,223)"/>
<path d="M0 0 C3.63 0 7.26 0 11 0 C11.33 1.98 11.66 3.96 12 6 C10.5 4.625 10.5 4.625 9 3 C9 2.34 9 1.68 9 1 C4.545 1.495 4.545 1.495 0 2 C0 1.34 0 0.68 0 0 Z " fill="#B0652B" transform="translate(166,224)"/>
<path d="M0 0 C0.99 0 1.98 0 3 0 C3.33 0.99 3.66 1.98 4 3 C3.01 3 2.02 3 1 3 C0.01 4.485 0.01 4.485 -1 6 C-2.32 5.67 -3.64 5.34 -5 5 C-3.625 3.5 -3.625 3.5 -2 2 C-1.34 2 -0.68 2 0 2 C0 1.34 0 0.68 0 0 Z " fill="#A15522" transform="translate(100,197)"/>
<path d="M0 0 C2.0625 2.25 2.0625 2.25 4 5 C3.75 7.3125 3.75 7.3125 3 9 C2.01 8.67 1.02 8.34 0 8 C0.33 7.34 0.66 6.68 1 6 C0.71887936 3.99199544 0.38932033 1.98985949 0 0 Z " fill="#DA7D2B" transform="translate(193,231)"/>
<path d="M0 0 C0.66 0 1.32 0 2 0 C1.54917531 1.46067199 1.08906463 2.91848032 0.625 4.375 C0.36976563 5.18710938 0.11453125 5.99921875 -0.1484375 6.8359375 C-1 9 -1 9 -3 11 C-3 9.02 -3 7.04 -3 5 C-2.34 5 -1.68 5 -1 5 C-0.67 3.35 -0.34 1.7 0 0 Z " fill="#B26F29" transform="translate(466,235)"/>
<path d="M0 0 C0.66 0 1.32 0 2 0 C2.99 2.31 3.98 4.62 5 7 C3.02 6.34 1.04 5.68 -1 5 C-0.67 3.35 -0.34 1.7 0 0 Z " fill="#FD8317" transform="translate(386,232)"/>
<path d="M0 0 C1.98 0.99 1.98 0.99 4 2 C4 2.99 4 3.98 4 5 C3.34 5 2.68 5 2 5 C1.67 5.99 1.34 6.98 1 8 C0.40267181 5.23735711 0 2.83967231 0 0 Z " fill="#A86728" transform="translate(128,202)"/>
<path d="M0 0 C0.33 0 0.66 0 1 0 C1.33 2.31 1.66 4.62 2 7 C0.35 6.67 -1.3 6.34 -3 6 C-2.42655063 3.13275314 -2.1385485 2.1385485 0 0 Z " fill="#EF7C17" transform="translate(457,251)"/>
<path d="M0 0 C0.33 0 0.66 0 1 0 C1 2.64 1 5.28 1 8 C0.01 7.67 -0.98 7.34 -2 7 C-2 5.35 -2 3.7 -2 2 C-1.34 2 -0.68 2 0 2 C0 1.34 0 0.68 0 0 Z " fill="#A35018" transform="translate(419,234)"/>
<path d="M0 0 C1.65 0 3.3 0 5 0 C5.12375 0.804375 5.2475 1.60875 5.375 2.4375 C5.684375 3.7059375 5.684375 3.7059375 6 5 C6.66 5.33 7.32 5.66 8 6 C5 6 5 6 3.61328125 4.6875 C2.40885417 3.125 1.20442708 1.5625 0 0 Z " fill="#C77225" transform="translate(91,226)"/>
<path d="M0 0 C0.66 0 1.32 0 2 0 C2 1.98 2 3.96 2 6 C2.66 6 3.32 6 4 6 C3.67 6.66 3.34 7.32 3 8 C2.01 8 1.02 8 0 8 C0 5.36 0 2.72 0 0 Z " fill="#D3721E" transform="translate(120,212)"/>
<path d="M0 0 C0.66 0 1.32 0 2 0 C2.66 2.31 3.32 4.62 4 7 C3.01 7.495 3.01 7.495 2 8 C0.4375 5.6875 0.4375 5.6875 -1 3 C-0.67 2.01 -0.34 1.02 0 0 Z " fill="#AF6D24" transform="translate(201,230)"/>
<path d="M0 0 C0.625 1.875 0.625 1.875 1 4 C0.34 4.66 -0.32 5.32 -1 6 C-3.125 5.625 -3.125 5.625 -5 5 C-4.67 4.34 -4.34 3.68 -4 3 C-3.01 3 -2.02 3 -1 3 C-0.67 2.01 -0.34 1.02 0 0 Z " fill="#F28829" transform="translate(234,217)"/>
<path d="M0 0 C2.18975773 3.28463659 2.99806563 6.20696275 4 10 C3.01 10 2.02 10 1 10 C0.67 6.7 0.34 3.4 0 0 Z " fill="#B06625" transform="translate(452,205)"/>
<path d="M0 0 C0.66 0 1.32 0 2 0 C1.74438677 2.3431213 1.40729228 4.67843403 1 7 C0.01 7.495 0.01 7.495 -1 8 C-1.04241723 5.66705225 -1.04092937 3.33297433 -1 1 C-0.67 0.67 -0.34 0.34 0 0 Z " fill="#C78033" transform="translate(81,201)"/>
<path d="M0 0 C0.33 0.66 0.66 1.32 1 2 C1.66 2.33 2.32 2.66 3 3 C1.68 4.32 0.36 5.64 -1 7 C-1 6.34 -1 5.68 -1 5 C-1.66 4.67 -2.32 4.34 -3 4 C-2.01 2.68 -1.02 1.36 0 0 Z " fill="#8A5722" transform="translate(84,196)"/>
<path d="M0 0 C3.3 0.33 6.6 0.66 10 1 C10 1.66 10 2.32 10 3 C8.02 3.33 6.04 3.66 4 4 C3.67 3.34 3.34 2.68 3 2 C2.01 1.34 1.02 0.68 0 0 Z " fill="#B36D24" transform="translate(420,233)"/>
<path d="M0 0 C1.98 0.99 1.98 0.99 4 2 C4 2.99 4 3.98 4 5 C4.66 5 5.32 5 6 5 C5.67 5.99 5.34 6.98 5 8 C2.74754119 5.31158141 1.11786042 3.35358125 0 0 Z " fill="#BC6F2C" transform="translate(381,232)"/>
<path d="M0 0 C3.08089673 2.77280706 4.68775452 5.06326356 6 9 C4.125 8.4375 4.125 8.4375 2 7 C0.75 3.375 0.75 3.375 0 0 Z " fill="#A65D21" transform="translate(187,222)"/>
<path d="M0 0 C2.475 0.495 2.475 0.495 5 1 C4.67 2.32 4.34 3.64 4 5 C3.01 4.67 2.02 4.34 1 4 C0.3125 1.9375 0.3125 1.9375 0 0 Z " fill="#DA7F30" transform="translate(448,226)"/>
<path d="M0 0 C0.99 0 1.98 0 3 0 C3 0.66 3 1.32 3 2 C1.03852126 3.38938077 -0.96166576 4.7260411 -3 6 C-3 4.35 -3 2.7 -3 1 C-2.01 1.33 -1.02 1.66 0 2 C0 1.34 0 0.68 0 0 Z " fill="#C77425" transform="translate(287,214)"/>
<path d="M0 0 C2.31 0 4.62 0 7 0 C7.33 0.99 7.66 1.98 8 3 C5.36 2.67 2.72 2.34 0 2 C0 1.34 0 0.68 0 0 Z " fill="#D17A2B" transform="translate(216,211)"/>
<path d="M0 0 C1.5625 1.125 1.5625 1.125 3 3 C2.6875 6.1875 2.6875 6.1875 2 9 C1.67 8.34 1.34 7.68 1 7 C0.34 7 -0.32 7 -1 7 C-0.67 4.69 -0.34 2.38 0 0 Z " fill="#935E2A" transform="translate(79,205)"/>
</svg>
